<svg xmlns="http://www.w3.org/2000/svg" width="256" height="256" viewBox="0 0 256 256">
  <g id="favicon" transform="translate(19843.441 4805.852)">
    <circle id="Ellipse_30" data-name="Ellipse 30" cx="128" cy="128" r="128" transform="translate(-19843.441 -4805.852)" fill="#fff"/>
    <path id="Path_142344" data-name="Path 142344" d="M374.232,472.239l46.885-46.887L374.081,378.3a69.828,69.828,0,0,0,.151,93.936" transform="translate(-20141.406 -5103.041)" fill="#c6001c"/>
    <path id="Path_142346" data-name="Path 142346" d="M427.188,498.466a69.655,69.655,0,0,1-45.048-16.486L428.9,435.22l6.551-6.552-53.478-53.493a69.944,69.944,0,1,1,45.216,123.29M375.305,381.618l47.036,47.05-46.885,46.886a69.826,69.826,0,0,1-.151-93.935M427.188,345a83.5,83.5,0,1,0,83.5,83.507A83.6,83.6,0,0,0,427.188,345" transform="translate(-20142.629 -5106.355)" fill="#1a1818"/>
  </g>
</svg>
