<svg xmlns="http://www.w3.org/2000/svg" width="209.78" height="201.651" viewBox="0 0 209.78 201.651">
  <g id="Group_11426" data-name="Group 11426" transform="translate(-663.697 634)">
    <path id="Path_3909" data-name="Path 3909" d="M163.948,72.606A68.728,68.728,0,0,1,199.447,50,69.535,69.535,0,0,0,151,119.484a50.37,50.37,0,0,0-.884,13.888c-.881-1.131-.907-2.6-1.185-3.945a69.2,69.2,0,0,1,15.017-56.821Z" transform="translate(543.686 -680.758)" fill="#fecf08"/>
    <g id="Group_11425" data-name="Group 11425" transform="translate(663.697 -634)">
      <g id="_000000ff" data-name="#000000ff" transform="translate(0 0)">
        <path id="Path_1" data-name="Path 1" d="M208.039,41.625a68.552,68.552,0,0,1,15.307-2.82,67.733,67.733,0,0,1,30.181,4.4,74.983,74.983,0,0,1,19.306,11.373c1.646,1.4,3.809,1.842,5.676,2.845a25.8,25.8,0,0,1,10.619,9.292A28.4,28.4,0,0,1,293.2,78.472c.728,6.188,2.925,12.086,3.755,18.254,1.879,12.259.952,25.087-3.7,36.653a72.7,72.7,0,0,1-13.18,21.154,26.079,26.079,0,0,0-2.484,2.945c10.076,4.025,20.125,8.129,30.21,12.134l.239-.1a14.254,14.254,0,0,0,.514-4.338,4.64,4.64,0,0,1,1.271,1.66c.637,1.091,1.379,2.123,1.967,3.249.381.824,1.035,1.7.719,2.655A4.912,4.912,0,0,1,310.2,174.1c-1.97.625-3.954,1.211-5.927,1.833,1.157-2.129,2.712-4.025,3.7-6.253-.233.321-.463.642-.685.972q-15.111-6.089-30.224-12.177c-.23,1.671.139,3.343,0,5.017a16.594,16.594,0,0,1-6.811,12.186,16.382,16.382,0,0,1-12.822,2.911c-2.877-.591-5.909-1.208-8.266-3.081-.4-.253-.81-.713-1.336-.543a69.252,69.252,0,0,1-48.876-3.834,56.025,56.025,0,0,1-7.567-4.159c5.87.975,11.859.071,17.731.981a26.5,26.5,0,0,1,5.241,1.393c-.949-1.785-1.961-3.752-3.86-4.687a7.851,7.851,0,0,0-4.207-.588,56.493,56.493,0,0,1-19.113-2.228c-5.207-1.578-10.381-3.7-14.565-7.26a19.342,19.342,0,0,1-6.631-10.148,20.277,20.277,0,0,1,.412-10.247c.9-2.336-.1-4.727-.406-7.066a47.933,47.933,0,0,1,2.5-24.474A65.63,65.63,0,0,1,173.8,91.923a45.519,45.519,0,0,1-1.714-10.963c-.79,2.271-1.654,4.52-2.5,6.771-3.6,9.147-7.547,18.379-8.442,28.271a64.974,64.974,0,0,0-.074,8.351c-.9-1.256-.915-2.845-1.234-4.3-.5-2.888-.773-5.81-.989-8.732a69.588,69.588,0,0,1,48.447-69.484l.2.014c.136-.057.412-.168.549-.225m5.025,9.227a17.739,17.739,0,0,0-9.6,7.783,42.413,42.413,0,0,1,7.092-1.717c2.231-.21,4.312.756,6.424,1.3,1.236.27,2.769.458,3.761-.509a6.3,6.3,0,0,0,1.128-3.65,3.359,3.359,0,0,0-1.8-3.576c-2.251-.9-4.781-.389-7,.37m49.757,1.728a2.266,2.266,0,0,0-.438,2.518,3.391,3.391,0,0,0,2.169.941c2.149.367,4.306.7,6.475.949a22.409,22.409,0,0,0-6.225-4.011c-.586-.3-1.362-1-1.981-.4M204.13,61.807a22.8,22.8,0,0,0-6.444,8.348c-.119.33-.242.657-.367.983a6.181,6.181,0,0,1,.244-2.831,16.165,16.165,0,0,1,1.984-5.074,1.017,1.017,0,0,0-.91-1.586c-1.657-.088-3.209.674-4.861.7-.074.071-.222.21-.3.281a9.537,9.537,0,0,0-4.551,1.623,23.456,23.456,0,0,0-8.576,10.472,20.338,20.338,0,0,0-.79,15.179c1.089,3.013,3.24,5.446,4.943,8.115a4.068,4.068,0,0,0,1.674,1.731,4.227,4.227,0,0,0,2.555-.128,91.869,91.869,0,0,0,18.146-7.487,20.671,20.671,0,0,0,9.136-11.051c.9-2.14,1.961-4.275,2.143-6.626,1.211-2.317,1.18-5.037,1.967-7.5a3.212,3.212,0,0,0-1.08-3.482c-2.288-1.782-4.647-3.752-7.612-4.207a8.85,8.85,0,0,0-7.305,2.53m54.083-1.362a12.532,12.532,0,0,0-6.8,6.555c-1.262,3.2-.716,6.816.458,9.957a7.131,7.131,0,0,0,.267.858c2.146.716,4.423,1.091,6.4,2.237-2,.3-4.11.082-5.978,1.035a1.555,1.555,0,0,0,.668,1.151A11.728,11.728,0,0,1,257,88.728c.7,2.675.674,5.489,1.467,8.144a15.043,15.043,0,0,0,3.8,6.4,20.813,20.813,0,0,0,8,4.6,2.863,2.863,0,0,0,2.26-.068,19.283,19.283,0,0,0,6.668-4.989,12.243,12.243,0,0,0,3-6.407c.173-2.538-1.069-4.889-2.484-6.9a2.377,2.377,0,0,1-.364-1.518c1.146.58,1.967,1.637,3.152,2.16a27.689,27.689,0,0,0,.549-9.647c-.333-3.24-.577-6.779-2.791-9.369a2.149,2.149,0,0,0-.122-1.376c-2.18-4.107-5.648-7.723-10.13-9.241a17.3,17.3,0,0,0-11.8-.068m20.341,3.027a21.132,21.132,0,0,1,5.156,7.609l.134.063A39.432,39.432,0,0,1,283.7,90.47a6.537,6.537,0,0,0,3.644-2.9l.56.4c-.384,1.16-.853,2.288-1.174,3.468a15.268,15.268,0,0,0,2.9-5.276,17.59,17.59,0,0,0,0-9.71,18.534,18.534,0,0,0-3.8-8.672c-1.8-2.214-4.292-4.232-7.277-4.306M227.831,65.63c-2.675,1.322-4.042,4.215-4.818,6.95a52.3,52.3,0,0,1-2.919,8.928,21.184,21.184,0,0,1-7.078,8.652,8.1,8.1,0,0,0,5.767-1.89,9.362,9.362,0,0,0,2.788-1.33c1.64-.9,2.823-2.43,4.528-3.226.253,1.02-.856,1.657-1.489,2.257-2.851,2.57-6.552,3.832-9.7,5.963a7.279,7.279,0,0,0-3.411,5.622,8.2,8.2,0,0,0,1.816,4.943,35.167,35.167,0,0,0,13.331,10.833,20.776,20.776,0,0,0,13.766,1.29,20.19,20.19,0,0,0,12.061-8.431,23.443,23.443,0,0,0,3.786-13.479c-.139-3.016-.765-6.157-2.678-8.576a11.82,11.82,0,0,0-6.919-4.144c-1.492-.321-3.115.134-4.511-.628a19.814,19.814,0,0,1,4.255-.691,14.96,14.96,0,0,0,2.524-.151.955.955,0,0,0,.64-1.148c-.077-.966-.108-1.936-.185-2.9l-.028.173a7.049,7.049,0,0,0-1.188-2.8,17.079,17.079,0,0,0-10.588-6.688c-3.2-.6-6.731-1.037-9.755.475m-21.6,29.516a66.137,66.137,0,0,0-15.992,6.245,2.812,2.812,0,0,0-1.3,1.731c-1.646,5.159-.679,10.81,1.225,15.77-.153,3.249,1.546,6.225,3.371,8.789.25.244.421.816.873.645.19-.418.534-.887.472-1.344.364-.9.75-1.8,1.055-2.723.364-.222.722-.446,1.083-.671-.19,1.222-.512,2.416-.7,3.635.486.193,1.032-.46,1.384-.785,6.233-7.939,11.171-17.149,12.879-27.18a3.9,3.9,0,0,0-.523-2.874,3.677,3.677,0,0,0-3.823-1.239m-28.8.557c-1.222.244-1.819,1.452-2.4,2.425-4.033,6.984-5.139,15.341-4.292,23.274a4.7,4.7,0,0,0,.37,2.172,27.981,27.981,0,0,0,.276,6.739c1.737-1.7,3.36-3.613,5.568-4.718,2.248-1.08,4.778-1.225,7.2-1.649a1.291,1.291,0,0,0,1.094-1.364c.236-2.732.426-5.466.708-8.195a18.512,18.512,0,0,0-.614-10.591c-.318-.773-.628-1.717-1.472-2.055a1.692,1.692,0,0,0-2.066.881c-.949,1.254-1.046,2.959-2.135,4.124-.04-.173-.122-.517-.162-.688.02-.134.057-.4.077-.534l-.031-.06a10.04,10.04,0,0,0,.526-2.806,19.345,19.345,0,0,0,.31-4.821,2.651,2.651,0,0,0-2.956-2.135m107.288,4.673c-.1.08-.31.236-.412.316-.313,1.288-1.447,2.115-1.879,3.351a5.157,5.157,0,0,0-1.4,1.993,4.242,4.242,0,0,0-2.373,3.007c-1.376.418-2.123,1.72-2.874,2.837-1.919,2.987-2.308,6.666-2.049,10.133.321,2.712.276,5.566,1.543,8.061.591,1.109,1.219,2.388,2.439,2.914a5.109,5.109,0,0,0,4.753-1.657,2.48,2.48,0,0,0,.361-2.791c-.6-1.41-1.58-2.749-1.484-4.352a23.916,23.916,0,0,0,2.715,3.365c.8.588,1.546-.25,1.944-.884,3.078-4.636,5.261-10.111,5.028-15.753a14.71,14.71,0,0,0-.765-5.136,24.241,24.241,0,0,0-4.059-9.9,14.184,14.184,0,0,0-1.484,4.5m-31.9,11.529c-1.791,2.066-4.193,3.437-6.242,5.2a43.635,43.635,0,0,0,7.135-.057,3.43,3.43,0,0,0,2.993-3.3c.176-1.828-2.635-3.485-3.886-1.848m6.077,1.845a3.193,3.193,0,0,0,3.132,2.857,9.9,9.9,0,0,0,7.18-2.993,50.131,50.131,0,0,1-7.311-2.3c-1.535-.651-2.933,1.009-3,2.433m-41.466.912c-1.191.483-1.3,2.01-.921,3.076,1.461,4.579,4.556,8.405,7.817,11.844.881.929,2.226.5,3.311.29a22.391,22.391,0,0,1,13.084,1.464c2.356.932,4.4,2.464,6.685,3.55,1.362.645,2.754,1.973,4.366,1.347A9.542,9.542,0,0,0,257.3,130.6a15.191,15.191,0,0,0,.89-7.643,2.743,2.743,0,0,0-1.654-2.268c-2.274-.748-4.684-.256-7.012-.142-1.529.031-3.036.335-4.565.33-7.075.611-14.673-.068-20.744-4.076-1.956-1.35-4.323-2.72-6.785-2.14m46.522,4.872c-.8.489-1.879.662-2.123,1.72a5.45,5.45,0,0,0-1.234,2.459l.1.256c-1.057,2.223-.708,4.784-.313,7.126a4.265,4.265,0,0,0,3.553,3.545,6.413,6.413,0,0,0,6.526-3.644,9.383,9.383,0,0,0,.878-5.165,38.429,38.429,0,0,1,.131-4.394,6.54,6.54,0,0,0-.992-2.535c-1.757-1.941-4.932-1.066-6.523.634m-52.7,3.715a1.842,1.842,0,0,0-1.009,1.322,7.558,7.558,0,0,0,2.481,7.476c1.188.912,2.473,2.115,4.1,1.9a5.263,5.263,0,0,0,4.21-2.069c.316-.563-.313-.878-.657-1.191-2.661-2-4.141-5.151-6.8-7.152a2.309,2.309,0,0,0-2.328-.29m75.433,4.664a44.182,44.182,0,0,0-4.463,8.036,3.7,3.7,0,0,0-.2,3.7c.3,1.026.449,2.089.773,3.11-1.779-.773-2.061-2.928-3.053-4.386a1.271,1.271,0,0,0-2.01-.119A17.327,17.327,0,0,0,272.912,149a4.407,4.407,0,0,0,1.424,3.923c1.009.554,1.634-.7,2.12-1.367l-.031-.136a33.471,33.471,0,0,0,5.961-7.368l.077.034c.159-.421.318-.841.486-1.256a2.459,2.459,0,0,0,1.109-1.063,62.909,62.909,0,0,0,6.234-12.493l.162-.014a2.815,2.815,0,0,0,.648-1.589c.091-.827-.767-1.43-1.515-1.438a3.662,3.662,0,0,0-2.9,1.677m-103.377-.193a11.526,11.526,0,0,0-6.469,2.308,21.008,21.008,0,0,0-5.881,6.054,8.337,8.337,0,0,0-.918,6.583c.89,2.99,3.141,5.341,5.534,7.237,4.079,3.3,9.039,5.165,13.766,7.3-6.282-.972-11.512-4.846-16.961-7.814,1.526,3.013,4.44,4.949,7.237,6.663,7.646,4.568,16.77,5.878,25.548,5.71,1.416-.065,2.891.219,4.249-.3.424-.935-.077-1.882-.3-2.791a33.285,33.285,0,0,1-.887-5.318c.045-1.043.082-2.086.068-3.127l.29.148a2.424,2.424,0,0,0-.4-2.123c-2.95-3.908-5.458-8.129-8.479-11.984a41.729,41.729,0,0,0-6.984-6.947,3.6,3.6,0,0,0-1.93-.7c-.02-.034-.063-.1-.085-.134-.242-.154-.486-.3-.725-.455a12.629,12.629,0,0,0-6.668-.31m38.592,6.086c5.3-.907,10.969-1.052,15.972,1.194,5.7,2.51,9.622,7.939,11.549,13.721a19.105,19.105,0,0,1-.441,13.035,34.57,34.57,0,0,1-4.682,7.953,13.024,13.024,0,0,0,6.347-6.211,23.893,23.893,0,0,0,2.214-14.8,20.306,20.306,0,0,0-4.122-9.192,21.61,21.61,0,0,0-13.6-7.933,20.941,20.941,0,0,0-13.234,2.237m-10.983-.409c-.964.631-.352,1.842-.216,2.723.273,1.126.668,2.692,2.044,2.854.887-.316,1.282-1.245,1.848-1.921.352-.583,1.194-.938,1.1-1.705a15.847,15.847,0,0,0-2.831-1.5c-.608-.262-1.262-.733-1.947-.452m58.879.878c-2.382,1.6-5.332,1.93-7.774,3.383-1.944,1.316-2.788,4.377-1.211,6.279a4.579,4.579,0,0,0,5.392.463c3.4-1.93,5.043-6.131,4.61-9.906-.009-.577-.716-.489-1.018-.219m-15.682,3.343c-.21.239-.418.478-.628.716,1.146,1.7,2.666,3.124,3.928,4.741a.7.7,0,0,0,1.33-.253,4.432,4.432,0,0,0-2.174-4.855,5.051,5.051,0,0,0-2.456-.35m-25.892,9.087c2.294.506,5.023,1.322,5.961,3.729.864,2.325-.62,4.6-1.8,6.5a6.573,6.573,0,0,0,4.406-3.01,6.254,6.254,0,0,0,.1-5.4,6.173,6.173,0,0,0-4-3.039,5.114,5.114,0,0,0-4.67,1.222m39.82,6.137c.875,4.073,1.052,8.49-.645,12.385-1.546,3.741-4.633,6.569-7.928,8.789a14.183,14.183,0,0,0,4.792-2.322,15.436,15.436,0,0,0,5.608-9.488A12.713,12.713,0,0,0,268.046,152.842Z" transform="translate(-127.855 -38.594)"/>
        <path id="Path_2" data-name="Path 2" d="M101.337,469.31c.526.2,1.06.4,1.592.594-5.622,2.2-11.182,4.576-16.793,6.811-11.685,4.8-23.4,9.519-35.082,14.323q.009,8.984,0,17.967c-.057,4.622.117,9.252-.091,13.871,2.382-1.569,5.367-1.637,7.962-2.715a10.447,10.447,0,0,0-2.985,5.125c1.029.389,2.049.8,3.047,1.265.057.381.119.765.19,1.148a22.382,22.382,0,0,1-3.363-1.256c-.273,1.469-.438,2.965-.785,4.42.08.489-.452.2-.514-.017-.932-1.774-2.095-3.414-2.948-5.227a.2.2,0,0,0-.02-.043l-.239-.514c-.006-.011-.02-.037-.026-.051-.21-.546-.785-.719-1.262-.947-.065-11.282-.028-22.569-.017-33.851C67.125,483.266,84.217,476.254,101.337,469.31Z" transform="translate(-49.987 -346.881)"/>
        <path id="Path_3" data-name="Path 3" d="M703.6,495.09c1.453,2.089,2.78,4.281,4.053,6.486-.694.782.168.287.472.256.978.341,1.916.787,2.859,1.219-.162.293-.318.588-.469.89-1.018-.324-2.007-.716-2.985-1.131-2.433,1.822-5.583,2.1-8.354,3.181,1.109-1.893,2.43-3.653,3.442-5.6A9.7,9.7,0,0,0,703.6,495.09Z" transform="translate(-514.65 -365.333)"/>
        <path id="Path_4" data-name="Path 4" d="M700.06,506.7a36.272,36.272,0,0,1,3.411,1.322c-.156.335-.316.671-.475,1.006-.944-.372-1.887-.748-2.831-1.109C700.137,507.51,700.1,507.1,700.06,506.7Z" transform="translate(-515.28 -373.643)"/>
        <path id="Path_5" data-name="Path 5" d="M732.429,506.89c.2.173.486.3.591.577a51.673,51.673,0,0,0,2.928,4.636c.276.463.313,1.143.884,1.379.995.472,2.055.793,3.044,1.282-.2.321-.409.642-.608.969-.952-.412-1.907-.807-2.885-1.137a8.807,8.807,0,0,1-2.615,1.353c-1.885.591-3.78,1.14-5.668,1.717,1.177-2.126,2.834-3.988,3.661-6.3A10.31,10.31,0,0,0,732.429,506.89Z" transform="translate(-535.35 -373.779)"/>
        <path id="Path_6" data-name="Path 6" d="M761.258,518.71a5.313,5.313,0,0,1,1.433,2.012c.8,1.566,2,2.925,2.6,4.593.262.932-.611,1.521-1.344,1.836-2.268.961-4.7,1.47-7,2.325,1.114-2.2,2.794-4.09,3.684-6.418A9.878,9.878,0,0,0,761.258,518.71Z" transform="translate(-555.992 -382.239)"/>
        <path id="Path_7" data-name="Path 7" d="M316.074,541.608l.347-.028c.023,11.6.043,23.209-.011,34.814q-29.087,11.393-58.142,22.87c-1.063.347-2.058,1.023-3.209.992q-43.924-.013-87.852,0a4.078,4.078,0,0,1-1.8-.455c-6.91-2.859-13.846-5.654-20.758-8.5-2.535-.975-5.006-2.149-7.592-2.976a21.89,21.89,0,0,1-.776,3.943c-.364.034-.415-.458-.611-.671-.975-1.725-1.978-3.437-2.987-5.136a16.839,16.839,0,0,0-3.428-1.325l-.011-.082a2.743,2.743,0,0,1-.043-.912c.082-.057.244-.173.327-.23,1.052.495,2.592.614,2.99,1.9-.088-.631-.452-1.433.091-1.956a6.83,6.83,0,0,1,2.493-1.04c1.734-.452,3.462-.927,5.162-1.492a10.22,10.22,0,0,0-3.03,5.722c9.59,3.957,19.215,7.825,28.8,11.785a9.75,9.75,0,0,0,3.164.242c5.5.043,11-.105,16.5.077,6.629-.185,13.266-.02,19.894-.08q23.587,0,47.173,0a10.664,10.664,0,0,0,3.226-.134q29.7-11.7,59.393-23.388c.011-10.742-.051-21.483.031-32.225A2.084,2.084,0,0,0,316.074,541.608Z" transform="translate(-106.664 -398.608)"/>
        <path id="Path_19" data-name="Path 19" d="M85.114,660.738c1.705-.429,3.4-.9,5.068-1.458a10.462,10.462,0,0,0-2.808,4.505c-.532,2.157-.574,4.409-1.18,6.558a50.845,50.845,0,0,1-3.59-5.986,2.542,2.542,0,0,1-.168-2.5A7.268,7.268,0,0,1,85.114,660.738Z" transform="translate(-73.016 -482.853)"/>
        <path id="Path_20" data-name="Path 20" d="M114.2,671.8c1.7-.429,3.383-.9,5.045-1.45-1.762,1.765-3.218,4.13-3.027,6.714l-.378-.188a32.8,32.8,0,0,1-.384,3.687c-.06.227-.179.682-.242.912-1.273-2-2.49-4.042-3.57-6.151l-.108-.1-.25-.114v-.091c.06-.694-.171-1.5.233-2.1A7.114,7.114,0,0,1,114.2,671.8Z" transform="translate(-93.855 -490.776)"/>
        <path id="Path_21" data-name="Path 21" d="M100.305,678.69l.318.1a18.825,18.825,0,0,1,2.607,1.032c.023.293.071.875.1,1.168a19.136,19.136,0,0,1-2.9-1.168C99.987,679.568,100.177,679.062,100.305,678.69Z" transform="translate(-85.893 -496.746)"/>
      </g>
      <g id="_5a5a5aff" data-name="#5a5a5aff" transform="translate(1.3 2.89)">
        <path id="Path_22" data-name="Path 22" d="M330.2,48.877l.281-.117.219.142c-.136.057-.412.168-.549.225Z" transform="translate(-251.815 -48.76)" fill="#5a5a5a"/>
        <path id="Path_23" data-name="Path 23" d="M238.441,124.793a9.537,9.537,0,0,1,4.551-1.623c-2.152,2.084-4.716,3.795-6.4,6.322-3.527,5.173-3.5,12.018-1.538,17.774a2.342,2.342,0,0,0,1.754,1.58,34.893,34.893,0,0,0,14.872-.824c4.949-1.333,9.369-4,13.848-6.4a20.671,20.671,0,0,1-9.136,11.051,91.869,91.869,0,0,1-18.146,7.487,4.227,4.227,0,0,1-2.555.128,4.068,4.068,0,0,1-1.674-1.731c-1.7-2.669-3.854-5.1-4.943-8.115a20.338,20.338,0,0,1,.79-15.179A23.456,23.456,0,0,1,238.441,124.793Z" transform="translate(-178.667 -102.019)" fill="#5a5a5a"/>
        <path id="Path_24" data-name="Path 24" d="M372.359,183.2a5.231,5.231,0,0,1,2.564-1.165c1.4.762,3.019.307,4.511.628a11.82,11.82,0,0,1,6.919,4.144c1.913,2.419,2.538,5.56,2.678,8.576a23.443,23.443,0,0,1-3.786,13.479,20.19,20.19,0,0,1-12.061,8.431A20.776,20.776,0,0,1,359.417,216a35.167,35.167,0,0,1-13.331-10.833,8.2,8.2,0,0,1-1.816-4.943,7.279,7.279,0,0,1,3.411-5.622c3.144-2.132,6.845-3.394,9.7-5.963.634-.6,1.742-1.236,1.489-2.257,1.751-.748,2-2.911,3.559-3.843.142,1.433-.978,2.453-1.589,3.624-1.856,3.331-4.906,5.722-7.652,8.28-1.444,1.424-3.1,2.851-3.644,4.889a6.963,6.963,0,0,0,1.262,5.617c2.544,3.746,6.64,6.111,10.816,7.641,4.068,1.384,8.661,2.095,12.777.5a6.884,6.884,0,0,0,3.834-3.465c-4.525-.392-9.372-.233-13.445-2.55,2.14.009,4.267.526,6.407.284,4.52-.708,9.369-2.632,11.793-6.751a9.358,9.358,0,0,0,.986-6.648,13.47,13.47,0,0,0-8.4-9.8C374.516,183.8,373.419,183.556,372.359,183.2Z" transform="translate(-261.921 -144.149)" fill="#5a5a5a"/>
        <path id="Path_25" data-name="Path 25" d="M494.7,184.45a11.492,11.492,0,0,1,2.027,1.069c-.006.679-.847.827-1.262,1.225-1.069.577-1.114,1.941-.893,2.987.657,3.334,1.157,6.705,2.1,9.974.719,2.643,1.794,5.378,4.019,7.118a10.551,10.551,0,0,0,6.873,2.311A6.458,6.458,0,0,0,512.48,206a12.756,12.756,0,0,0,1.535-9.434,26.9,26.9,0,0,0-2.823-6.694,2.38,2.38,0,0,1,1.5.654,8.73,8.73,0,0,0,2.817,1.853,2.376,2.376,0,0,0,.364,1.518c1.416,2.015,2.658,4.366,2.484,6.9a12.243,12.243,0,0,1-3,6.407,19.282,19.282,0,0,1-6.668,4.988,2.863,2.863,0,0,1-2.26.068,20.813,20.813,0,0,1-8-4.6,15.043,15.043,0,0,1-3.8-6.4c-.793-2.655-.762-5.469-1.467-8.144a11.729,11.729,0,0,0-3.766-6.489,1.555,1.555,0,0,1-.668-1.151C490.587,184.532,492.7,184.746,494.7,184.45Z" transform="translate(-365.312 -145.881)" fill="#5a5a5a"/>
        <path id="Path_26" data-name="Path 26" d="M282.156,237.256a3.677,3.677,0,0,1,3.823,1.239,3.9,3.9,0,0,1,.523,2.874c-1.708,10.031-6.646,19.241-12.879,27.18-.352.324-.9.978-1.384.785.188-1.219.509-2.413.7-3.635-.361.225-.719.449-1.083.671,1.14-4.92,3.192-9.664,3.476-14.755a6.944,6.944,0,0,0-2.635-6.1,6.1,6.1,0,0,0-4.664-1.273,14.882,14.882,0,0,0-3.172.989,2.812,2.812,0,0,1,1.3-1.731A66.137,66.137,0,0,1,282.156,237.256Z" transform="translate(-205.083 -183.594)" fill="#5a5a5a"/>
        <path id="Path_27" data-name="Path 27" d="M206.87,239.431a2.651,2.651,0,0,1,2.956,2.135,19.343,19.343,0,0,1-.31,4.821,10.04,10.04,0,0,1-.526,2.806,30.751,30.751,0,0,1-1.273-2.891,1.469,1.469,0,0,0-2.26-.068,9.082,9.082,0,0,0-1.373,2.607c-1.754,4.289-2.285,8.934-2.806,13.5a25.535,25.535,0,0,1-.731,4.963,4.7,4.7,0,0,1-.37-2.172c-.847-7.933.259-16.29,4.292-23.274C205.051,240.884,205.648,239.675,206.87,239.431Z" transform="translate(-158.597 -185.211)" fill="#5a5a5a"/>
        <path id="Path_28" data-name="Path 28" d="M573.569,256.266c.1-.08.31-.236.412-.316a4.02,4.02,0,0,1-.372,1.3,16.346,16.346,0,0,1-3.084,4.8A5.886,5.886,0,0,1,568.9,264.2c-.978.628-1.225,1.819-1.833,2.737a11.866,11.866,0,0,0-1.29,10.648,11.646,11.646,0,0,0,1.842,3.266c.48.648,1.717.145,1.364-.7a14.532,14.532,0,0,1-.273-5.492c.816,1.109,1.3,2.425,2.146,3.513a5.121,5.121,0,0,0,3.167,1.265c1.433.009,2.234-1.379,2.752-2.521,2.149-4.9,2.155-10.338,2.749-15.562a14.712,14.712,0,0,1,.765,5.136c.233,5.642-1.95,11.117-5.028,15.753-.4.634-1.148,1.472-1.944.884a23.913,23.913,0,0,1-2.715-3.365c-.1,1.6.884,2.942,1.484,4.352a2.48,2.48,0,0,1-.361,2.791,5.109,5.109,0,0,1-4.753,1.657c-1.219-.526-1.848-1.8-2.439-2.914-1.268-2.5-1.222-5.349-1.543-8.061-.259-3.468.131-7.146,2.049-10.133.75-1.117,1.5-2.419,2.874-2.837a4.242,4.242,0,0,1,2.373-3.007,5.158,5.158,0,0,1,1.4-1.993C572.123,258.38,573.257,257.553,573.569,256.266Z" transform="translate(-418.42 -197.057)" fill="#5a5a5a"/>
        <path id="Path_29" data-name="Path 29" d="M233.628,261.314a1.692,1.692,0,0,1,2.066-.881c.844.338,1.154,1.282,1.472,2.055a18.512,18.512,0,0,1,.614,10.591c-.52-2.561-.549-5.21-1.225-7.737a1.548,1.548,0,0,0-2.555-.833,33.958,33.958,0,0,0-2.484,3.5,5.791,5.791,0,0,1-.185-3.255c.04.171.122.514.162.688C232.582,264.273,232.678,262.567,233.628,261.314Z" transform="translate(-180.983 -200.175)" fill="#5a5a5a"/>
        <path id="Path_30" data-name="Path 30" d="M473.912,294.824c1.251-1.637,4.062.02,3.886,1.848a3.43,3.43,0,0,1-2.993,3.3,43.633,43.633,0,0,1-7.135.057C469.719,298.261,472.121,296.891,473.912,294.824Z" transform="translate(-350.245 -224.402)" fill="#5a5a5a"/>
        <path id="Path_31" data-name="Path 31" d="M511.01,296.506c.068-1.424,1.467-3.084,3-2.433a50.139,50.139,0,0,0,7.311,2.3,9.9,9.9,0,0,1-7.18,2.993A3.193,3.193,0,0,1,511.01,296.506Z" transform="translate(-381.266 -224.24)" fill="#5a5a5a"/>
        <path id="Path_32" data-name="Path 32" d="M362.322,305.866c2.462-.58,4.829.79,6.785,2.14,6.071,4.008,13.669,4.687,20.744,4.076,1.529.006,3.036-.3,4.565-.33,2.328-.114,4.738-.605,7.012.142a2.743,2.743,0,0,1,1.654,2.268,15.191,15.191,0,0,1-.89,7.643,9.542,9.542,0,0,1-5.529,5.631c-1.612.625-3-.7-4.366-1.347-2.283-1.086-4.329-2.618-6.685-3.55a22.392,22.392,0,0,0-13.084-1.464c-1.086.21-2.43.64-3.311-.29-3.26-3.439-6.356-7.265-7.817-11.844-.378-1.066-.27-2.592.921-3.076m18.959,8.581a28.933,28.933,0,0,0,11.418,2.6,7.778,7.778,0,0,1,5.119,1.546c1.259,1.083,1.674,2.751,2.251,4.241a10.266,10.266,0,0,0,1.114-7.939c-.406-1.416-2.035-1.879-3.351-1.777C392.3,313.424,386.818,314.243,381.281,314.447Z" transform="translate(-274.044 -232.687)" fill="#5a5a5a"/>
        <path id="Path_33" data-name="Path 33" d="M517.1,330.242c1.862-1.259,4.045-2.362,6.359-2.149a2.055,2.055,0,0,1,1.7,1.629c.333,1.106.634,2.22,1.049,3.3a9.383,9.383,0,0,1-.878,5.165,6.414,6.414,0,0,1-6.526,3.644,4.265,4.265,0,0,1-3.553-3.545c-.4-2.342-.745-4.9.313-7.126.068.176.142.35.216.529A4.529,4.529,0,0,1,517.1,330.242Z" transform="translate(-384.024 -248.675)" fill="#5a5a5a"/>
        <path id="Path_34" data-name="Path 34" d="M340.378,335.941a2.309,2.309,0,0,1,2.328.29c2.655,2,4.136,5.153,6.8,7.152.344.313.972.628.657,1.191a5.263,5.263,0,0,1-4.21,2.069c-1.626.21-2.911-.992-4.1-1.9a7.558,7.558,0,0,1-2.481-7.476A1.842,1.842,0,0,1,340.378,335.941Z" transform="translate(-258.277 -254.175)" fill="#5a5a5a"/>
        <path id="Path_35" data-name="Path 35" d="M595.99,348.587a3.662,3.662,0,0,1,2.9-1.677c.748.009,1.606.611,1.515,1.438a2.814,2.814,0,0,1-.648,1.589l-.162.014a4.149,4.149,0,0,0-3.707,2.209c-1.62,2.661-3,5.46-4.562,8.158a3.7,3.7,0,0,1,.2-3.7A44.184,44.184,0,0,1,595.99,348.587Z" transform="translate(-438.456 -262.157)" fill="#5a5a5a"/>
        <path id="Path_36" data-name="Path 36" d="M204.4,354.458a11.526,11.526,0,0,1,6.469-2.308c-1.5.73-2.9,1.623-4.323,2.487a8.854,8.854,0,0,0-3.957,4.289,6.145,6.145,0,0,0,.915,5.344c2.487,3.729,5.961,7.007,10.31,8.377a4.364,4.364,0,0,0,1.907-.023q-.516-1.2-1.077-2.373c6.577,3.573,13.573,6.927,21.139,7.533a33.283,33.283,0,0,0,.887,5.318c.227.91.728,1.856.3,2.791-1.359.52-2.834.236-4.249.3-8.777.168-17.9-1.143-25.548-5.71-2.8-1.714-5.71-3.65-7.237-6.663,5.449,2.968,10.679,6.842,16.961,7.814-4.727-2.138-9.687-4-13.766-7.3-2.393-1.9-4.645-4.247-5.534-7.237a8.337,8.337,0,0,1,.918-6.583A21.008,21.008,0,0,1,204.4,354.458Z" transform="translate(-156.713 -265.913)" fill="#5a5a5a"/>
        <path id="Path_37" data-name="Path 37" d="M340.879,371.9c.685-.281,1.339.19,1.947.452a15.845,15.845,0,0,1,2.831,1.5c.091.767-.75,1.123-1.1,1.705-.566.677-.961,1.606-1.848,1.922-1.376-.162-1.771-1.728-2.044-2.854C340.526,373.744,339.915,372.533,340.879,371.9Z" transform="translate(-259.113 -279.988)" fill="#5a5a5a"/>
        <path id="Path_38" data-name="Path 38" d="M524.66,374.681c.3-.27,1.009-.358,1.018.219.432,3.775-1.208,7.976-4.61,9.906a4.58,4.58,0,0,1-5.392-.463c-1.578-1.9-.733-4.963,1.211-6.279C519.328,376.611,522.278,376.278,524.66,374.681Z" transform="translate(-384.016 -281.889)" fill="#5a5a5a"/>
        <path id="Path_39" data-name="Path 39" d="M492.608,386.965a5.05,5.05,0,0,1,2.456.35,4.432,4.432,0,0,1,2.174,4.855.7.7,0,0,1-1.33.253c-1.262-1.617-2.783-3.039-3.928-4.741C492.19,387.443,492.4,387.2,492.608,386.965Z" transform="translate(-367.645 -290.831)" fill="#5a5a5a"/>
        <path id="Path_40" data-name="Path 40" d="M564.925,388.1a1.271,1.271,0,0,1,2.01.119c.992,1.458,1.273,3.613,3.053,4.386l.153.08c-.168.415-.327.836-.486,1.256l-.077-.034c-1.288-.588-2.689-1.31-4.144-.972a2.944,2.944,0,0,0-1.867,2.089,10.673,10.673,0,0,0,.051,6.251l.031.136c-.486.665-1.111,1.922-2.12,1.367a4.406,4.406,0,0,1-1.424-3.923A17.327,17.327,0,0,1,564.925,388.1Z" transform="translate(-416.347 -291.334)" fill="#5a5a5a"/>
        <path id="Path_41" data-name="Path 41" d="M54.56,665.27c.006.014.02.04.026.051C54.58,665.31,54.566,665.284,54.56,665.27Z" transform="translate(-54.56 -490.03)" fill="#5a5a5a"/>
        <path id="Path_42" data-name="Path 42" d="M55.49,667.26a.2.2,0,0,1,.02.043A.2.2,0,0,0,55.49,667.26Z" transform="translate(-55.226 -491.454)" fill="#5a5a5a"/>
        <path id="Path_43" data-name="Path 43" d="M112.2,687.5l.108.1Z" transform="translate(-95.816 -505.941)" fill="#5a5a5a"/>
      </g>
      <path id="Path_3908" data-name="Path 3908" d="M96.681,187.64A45.518,45.518,0,0,0,98.395,198.6a65.632,65.632,0,0,0-5.307,10.722,47.933,47.933,0,0,0-2.5,24.474c.31,2.339,1.3,4.73.406,7.066a20.277,20.277,0,0,0-.412,10.247,19.342,19.342,0,0,0,6.631,10.148c4.184,3.559,9.357,5.682,14.565,7.26a56.493,56.493,0,0,0,19.113,2.228,7.851,7.851,0,0,1,4.207.588c1.9.935,2.911,2.9,3.86,4.687a26.5,26.5,0,0,0-5.241-1.393c-5.873-.91-11.862-.006-17.731-.981a56.023,56.023,0,0,0,7.567,4.159,69.252,69.252,0,0,0,48.876,3.834c.526-.171.935.29,1.336.543,2.356,1.873,5.389,2.49,8.266,3.081a16.382,16.382,0,0,0,12.822-2.911,16.594,16.594,0,0,0,6.811-12.186c.139-1.674-.23-3.346,0-5.017q15.106,6.11,30.224,12.177c.222-.33.452-.651.685-.972-.989,2.229-2.544,4.124-3.7,6.253,1.973-.622,3.957-1.208,5.927-1.833a4.912,4.912,0,0,0,2.314-1.359c.316-.958-.338-1.831-.719-2.655.222.179.458.361.688.546a2.05,2.05,0,0,0,.153,1.02c.04.4.077.81.105,1.219.944.361,1.887.736,2.831,1.109.159-.335.318-.671.475-1.006a12.163,12.163,0,0,0,.762-4.622,9.7,9.7,0,0,1-.981,5.3c-1.012,1.947-2.334,3.707-3.442,5.6,2.771-1.077,5.921-1.359,8.354-3.181.978.415,1.967.807,2.985,1.131.151-.3.307-.6.469-.89l.074-.134c-.827,2.314-2.484,4.176-3.661,6.3,1.887-.577,3.783-1.126,5.668-1.717a8.806,8.806,0,0,0,2.615-1.353c.978.33,1.933.725,2.885,1.137.2-.327.4-.648.608-.969l.105-.165c-.89,2.328-2.57,4.215-3.684,6.418,2.305-.856,4.736-1.364,7-2.325.733-.316,1.606-.9,1.344-1.836-.6-1.669-1.8-3.027-2.6-4.593a31.891,31.891,0,0,1,2.712,4.517,2.084,2.084,0,0,1-.662,1.714c-.082,10.742-.02,21.483-.031,32.225q-29.68,11.729-59.393,23.388a10.664,10.664,0,0,1-3.226.134q-23.587,0-47.173,0c-6.629.06-13.266-.105-19.894.08-5.494-.182-11-.034-16.5-.077a9.751,9.751,0,0,1-3.164-.242c-9.588-3.96-19.212-7.828-28.8-11.785a10.22,10.22,0,0,1,3.03-5.722c-1.7.566-3.428,1.04-5.162,1.492a6.829,6.829,0,0,0-2.493,1.04c-.543.523-.179,1.325-.091,1.956-.4-1.282-1.939-1.4-2.99-1.9-.082.057-.244.173-.327.23a2.743,2.743,0,0,0,.043.912c-.986.844-.526,2.433-1,3.559l.026-.222a32.8,32.8,0,0,0,.384-3.687l.378.188c-.19-2.584,1.265-4.949,3.027-6.714-1.663.546-3.348,1.02-5.045,1.45a7.115,7.115,0,0,0-2.68,1.117c-.4.608-.173,1.41-.233,2.1-.026-.293-.074-.875-.1-1.168a18.826,18.826,0,0,0-2.607-1.032,2.129,2.129,0,0,1-.372-1.111,10.462,10.462,0,0,1,2.808-4.505c-1.666.563-3.363,1.029-5.068,1.458a7.268,7.268,0,0,0-2.678,1.12,2.542,2.542,0,0,0,.168,2.5,6.883,6.883,0,0,1-.4-.685c-.071-.384-.134-.767-.19-1.148-1-.463-2.018-.875-3.047-1.265a10.447,10.447,0,0,1,2.985-5.125c-2.6,1.077-5.58,1.146-7.962,2.715.207-4.619.034-9.249.091-13.871q0-8.984,0-17.967c11.68-4.8,23.4-9.528,35.082-14.323,5.611-2.234,11.171-4.608,16.793-6.811-.532-.2-1.066-.389-1.592-.594-5.654-2.206-11.134-5.651-14.36-10.929a18.014,18.014,0,0,1-2.061-13.047,32.545,32.545,0,0,0,.887-4.238,16.933,16.933,0,0,0-.449-2.82,47.946,47.946,0,0,1,.753-22.2A54.523,54.523,0,0,1,94.4,200.982a3.63,3.63,0,0,0,.492-2.857,17.994,17.994,0,0,1-.716-3.715c.847-2.251,1.711-4.5,2.5-6.771" transform="translate(-52.491 -145.274)" fill="#fecf08"/>
      <g id="_9c9c9cff" data-name="#9c9c9cff" transform="translate(43.185 11.409)">
        <path id="Path_48" data-name="Path 48" d="M325.582,79.58c2.217-.759,4.747-1.273,7-.37a3.359,3.359,0,0,1,1.8,3.576,6.3,6.3,0,0,1-1.128,3.65c-.992.966-2.524.779-3.761.509-2.112-.543-4.193-1.509-6.424-1.3a42.413,42.413,0,0,0-7.092,1.717A17.739,17.739,0,0,1,325.582,79.58Z" transform="translate(-283.558 -78.73)" fill="#9c9c9c"/>
        <path id="Path_49" data-name="Path 49" d="M257.822,120.387c1.651-.031,3.2-.793,4.861-.7a1.017,1.017,0,0,1,.91,1.586,16.165,16.165,0,0,0-1.984,5.074,6.18,6.18,0,0,0-.244,2.831c.125-.327.247-.654.367-.983,1.933-.85,2.695-2.959,4.244-4.255,2.243-2.092,5.125-4.022,8.34-3.638,3.573.449,6.432,2.956,8.874,5.418-.139,2.291-1.1,4.468-.983,6.782-.182,2.351-1.245,4.485-2.143,6.626-4.48,2.4-8.9,5.065-13.848,6.4a34.893,34.893,0,0,1-14.872.824,2.342,2.342,0,0,1-1.754-1.58c-1.967-5.756-1.99-12.6,1.538-17.774,1.683-2.527,4.247-4.238,6.4-6.322C257.6,120.6,257.749,120.458,257.822,120.387Z" transform="translate(-235.085 -108.037)" fill="#9c9c9c"/>
        <path id="Path_50" data-name="Path 50" d="M496.908,123.808a16.424,16.424,0,0,1,12.251,2.766c2.18,1.407,3.644,3.6,5.517,5.355,2.214,2.589,2.459,6.128,2.791,9.369a27.69,27.69,0,0,1-.549,9.647c-1.185-.523-2.007-1.58-3.152-2.16a8.73,8.73,0,0,1-2.817-1.853,2.381,2.381,0,0,0-1.5-.654,26.9,26.9,0,0,1,2.823,6.694,12.756,12.756,0,0,1-1.535,9.434,6.458,6.458,0,0,1-4.917,3.13,10.551,10.551,0,0,1-6.873-2.311c-2.226-1.74-3.3-4.474-4.019-7.117-.944-3.269-1.444-6.64-2.1-9.974-.222-1.046-.176-2.41.893-2.987.415-.4,1.256-.546,1.262-1.225a11.49,11.49,0,0,0-2.027-1.069c-1.981-1.146-4.258-1.521-6.4-2.237a7.13,7.13,0,0,1-.267-.858c.06-2.945,0-6.1,1.634-8.684C489.827,125.957,493.463,124.476,496.908,123.808Z" transform="translate(-405.451 -110.801)" fill="#9c9c9c"/>
        <path id="Path_51" data-name="Path 51" d="M376.336,140.195a18.967,18.967,0,0,1,12.765,2.339,22.986,22.986,0,0,1,5.733,5.27c.026-.153.074-.458.1-.611l.028-.173c.077.966.108,1.936.185,2.9a.955.955,0,0,1-.64,1.148,14.961,14.961,0,0,1-2.524.151,19.815,19.815,0,0,0-4.255.691,5.231,5.231,0,0,0-2.564,1.165c1.06.361,2.157.6,3.215.966a13.47,13.47,0,0,1,8.4,9.8,9.358,9.358,0,0,1-.986,6.648c-2.425,4.119-7.274,6.043-11.793,6.751-2.14.242-4.267-.276-6.407-.284,4.073,2.317,8.92,2.157,13.445,2.55a6.883,6.883,0,0,1-3.834,3.465c-4.116,1.595-8.709.884-12.777-.5-4.176-1.529-8.272-3.894-10.816-7.641a6.963,6.963,0,0,1-1.262-5.617c.543-2.038,2.2-3.465,3.644-4.889,2.746-2.558,5.8-4.949,7.652-8.28.611-1.171,1.731-2.192,1.589-3.624-1.561.932-1.808,3.1-3.559,3.843-1.705.8-2.888,2.331-4.528,3.226a9.362,9.362,0,0,1-2.788,1.33c2.479-4.5,3.979-9.431,5.472-14.317a9.733,9.733,0,0,1,2.143-4.07A7.538,7.538,0,0,1,376.336,140.195Z" transform="translate(-316.612 -122.549)" fill="#9c9c9c"/>
        <path id="Path_52" data-name="Path 52" d="M598.4,153.11c2.55.983,4.031,3.374,5.787,5.307a17.59,17.59,0,0,1,0,9.71,15.268,15.268,0,0,1-2.9,5.276c.321-1.18.79-2.308,1.174-3.468l-.56-.4a6.537,6.537,0,0,1-3.644,2.9A39.431,39.431,0,0,0,598.4,153.11Z" transform="translate(-485.601 -131.968)" fill="#9c9c9c"/>
        <path id="Path_53" data-name="Path 53" d="M579.353,244.62a14.184,14.184,0,0,1,1.484-4.5,24.241,24.241,0,0,1,4.059,9.9c-.594,5.224-.6,10.662-2.749,15.562-.517,1.143-1.319,2.53-2.751,2.521a5.121,5.121,0,0,1-3.167-1.265c-.841-1.089-1.33-2.4-2.146-3.513a14.531,14.531,0,0,0,.273,5.492c.352.841-.884,1.344-1.364.7a11.645,11.645,0,0,1-1.842-3.266,11.866,11.866,0,0,1,1.29-10.648c.608-.918.856-2.109,1.833-2.737a5.886,5.886,0,0,0,1.623-2.149,16.344,16.344,0,0,0,3.084-4.8A4.02,4.02,0,0,0,579.353,244.62Z" transform="translate(-465.677 -194.246)" fill="#9c9c9c"/>
        <path id="Path_54" data-name="Path 54" d="M206.892,262.192a1.469,1.469,0,0,1,2.26.068,30.751,30.751,0,0,0,1.273,2.891l.031.06c-.02.134-.057.4-.077.534a5.792,5.792,0,0,0,.185,3.255,33.955,33.955,0,0,1,2.484-3.5,1.548,1.548,0,0,1,2.555.833c.676,2.527.7,5.176,1.225,7.737-.281,2.729-.472,5.463-.708,8.195a1.291,1.291,0,0,1-1.094,1.364c-2.422.424-4.952.568-7.2,1.649-2.209,1.106-3.832,3.019-5.568,4.718a27.982,27.982,0,0,1-.276-6.739,25.535,25.535,0,0,0,.731-4.963c.52-4.565,1.052-9.21,2.806-13.5A9.082,9.082,0,0,1,206.892,262.192Z" transform="translate(-201.917 -209.689)" fill="#9c9c9c"/>
        <path id="Path_55" data-name="Path 55" d="M262.745,262.905a14.881,14.881,0,0,1,3.172-.989,6.1,6.1,0,0,1,4.664,1.273,6.944,6.944,0,0,1,2.635,6.1c-.284,5.091-2.336,9.835-3.476,14.755-.3.924-.691,1.819-1.055,2.723-2.112-2.365-3-5.475-4.716-8.09C262.065,273.715,261.1,268.064,262.745,262.905Z" transform="translate(-244.853 -209.785)" fill="#9c9c9c"/>
        <path id="Path_56" data-name="Path 56" d="M520.188,321.758c2.189-.546,4.372-1.615,6.683-1.046a6.54,6.54,0,0,1,.992,2.535,38.422,38.422,0,0,0-.131,4.394c-.415-1.08-.716-2.194-1.049-3.3a2.055,2.055,0,0,0-1.7-1.629c-2.314-.213-4.5.89-6.359,2.149a4.529,4.529,0,0,0-1.319,1.447c-.074-.179-.148-.352-.216-.529l-.1-.256a5.45,5.45,0,0,1,1.234-2.459c.244-1.057,1.327-1.231,2.123-1.72Z" transform="translate(-427.432 -251.814)" fill="#9c9c9c"/>
        <path id="Path_57" data-name="Path 57" d="M431.83,333.023c5.537-.2,11.023-1.023,16.552-1.327,1.316-.1,2.945.361,3.351,1.777a10.266,10.266,0,0,1-1.114,7.939c-.577-1.489-.992-3.158-2.251-4.241a7.777,7.777,0,0,0-5.119-1.546A28.934,28.934,0,0,1,431.83,333.023Z" transform="translate(-366.478 -259.782)" fill="#9c9c9c"/>
        <path id="Path_58" data-name="Path 58" d="M223.533,351.363a12.629,12.629,0,0,1,6.668.31c.239.151.483.3.725.455.023.034.065.1.085.134a21,21,0,0,0,2.126,2.783c2.769,3.431,5.378,6.99,7.851,10.639,2,3.121,4.2,6.35,7.527,8.186.014,1.04-.023,2.084-.068,3.127-7.567-.605-14.562-3.96-21.139-7.533q.559,1.177,1.077,2.373a4.364,4.364,0,0,1-1.907.023c-4.349-1.37-7.822-4.647-10.31-8.377a6.145,6.145,0,0,1-.915-5.344,8.854,8.854,0,0,1,3.957-4.289C220.631,352.986,222.038,352.094,223.533,351.363Z" transform="translate(-211.262 -273.645)" fill="#9c9c9c"/>
        <path id="Path_59" data-name="Path 59" d="M596.922,359.823a4.149,4.149,0,0,1,3.707-2.209,62.909,62.909,0,0,1-6.234,12.493,2.459,2.459,0,0,1-1.109,1.063l-.154-.08c-.324-1.02-.475-2.084-.773-3.11C593.918,365.284,595.3,362.484,596.922,359.823Z" transform="translate(-481.378 -278.339)" fill="#9c9c9c"/>
        <path id="Path_60" data-name="Path 60" d="M571.361,408.071a2.944,2.944,0,0,1,1.867-2.089c1.455-.338,2.857.384,4.144.972a33.471,33.471,0,0,1-5.961,7.368A10.672,10.672,0,0,1,571.361,408.071Z" transform="translate(-466.028 -312.9)" fill="#9c9c9c"/>
      </g>
      <g id="_e2e2e2ff" data-name="#e2e2e2ff" transform="translate(62.292 13.749)">
        <path id="Path_61" data-name="Path 61" d="M523.142,87.2c.62-.605,1.4.1,1.981.4a22.41,22.41,0,0,1,6.225,4.011c-2.169-.247-4.326-.583-6.475-.949a3.391,3.391,0,0,1-2.169-.941A2.266,2.266,0,0,1,523.142,87.2Z" transform="translate(-450.468 -86.962)" fill="#e2e2e2"/>
        <path id="Path_62" data-name="Path 62" d="M302.1,113.633a8.85,8.85,0,0,1,7.305-2.53c2.965.455,5.324,2.425,7.612,4.207a3.212,3.212,0,0,1,1.08,3.482c-.787,2.459-.756,5.179-1.967,7.5-.119-2.314.844-4.491.983-6.782-2.442-2.462-5.3-4.969-8.874-5.418-3.215-.384-6.1,1.546-8.34,3.638-1.549,1.3-2.311,3.405-4.244,4.255A22.8,22.8,0,0,1,302.1,113.633Z" transform="translate(-288.121 -104.168)" fill="#e2e2e2"/>
        <path id="Path_63" data-name="Path 63" d="M489.653,112.932a17.3,17.3,0,0,1,11.8.068c4.483,1.518,7.95,5.133,10.13,9.241a2.149,2.149,0,0,1,.122,1.376c-1.873-1.751-3.337-3.948-5.517-5.355a16.424,16.424,0,0,0-12.251-2.766c-3.445.668-7.081,2.149-8.994,5.264-1.632,2.587-1.575,5.739-1.634,8.684-1.174-3.141-1.72-6.757-.458-9.957A12.532,12.532,0,0,1,489.653,112.932Z" transform="translate(-421.587 -104.829)" fill="#e2e2e2"/>
        <path id="Path_64" data-name="Path 64" d="M580.16,126.12c2.985.074,5.475,2.092,7.277,4.306a18.533,18.533,0,0,1,3.8,8.672c-1.757-1.933-3.238-4.323-5.787-5.307l-.134-.063A21.132,21.132,0,0,0,580.16,126.12Z" transform="translate(-491.753 -114.99)" fill="#e2e2e2"/>
        <path id="Path_65" data-name="Path 65" d="M364.4,131.121c3.024-1.512,6.552-1.072,9.755-.475a17.079,17.079,0,0,1,10.588,6.688,7.049,7.049,0,0,1,1.188,2.8c-.026.153-.074.458-.1.611a22.987,22.987,0,0,0-5.733-5.27,18.967,18.967,0,0,0-12.765-2.339,7.538,7.538,0,0,0-4.366,2.234,9.733,9.733,0,0,0-2.143,4.07c-1.492,4.886-2.993,9.821-5.472,14.317a8.1,8.1,0,0,1-5.767,1.89A21.184,21.184,0,0,0,356.668,147a52.294,52.294,0,0,0,2.919-8.928C360.363,135.336,361.73,132.442,364.4,131.121Z" transform="translate(-326.721 -117.833)" fill="#e2e2e2"/>
        <path id="Path_66" data-name="Path 66" d="M528.4,318.971c1.592-1.7,4.767-2.575,6.523-.634-2.311-.568-4.494.5-6.683,1.046Z" transform="translate(-454.591 -251.779)" fill="#e2e2e2"/>
        <path id="Path_67" data-name="Path 67" d="M269.146,321.09c1.72,2.615,2.6,5.725,4.716,8.09.063.458-.281.927-.472,1.344-.452.171-.622-.4-.873-.645C270.692,327.315,268.992,324.339,269.146,321.09Z" transform="translate(-269.136 -254.54)" fill="#e2e2e2"/>
        <path id="Path_68" data-name="Path 68" d="M271.4,355.31a3.6,3.6,0,0,1,1.93.7,41.73,41.73,0,0,1,6.984,6.947c3.022,3.854,5.529,8.075,8.479,11.984a2.424,2.424,0,0,1,.4,2.123l-.29-.148c-3.323-1.836-5.523-5.065-7.527-8.186-2.473-3.65-5.082-7.208-7.851-10.639A21.005,21.005,0,0,1,271.4,355.31Z" transform="translate(-270.756 -279.033)" fill="#e2e2e2"/>
        <path id="Path_69" data-name="Path 69" d="M380.86,367.292a20.941,20.941,0,0,1,13.234-2.237,21.61,21.61,0,0,1,13.6,7.933,20.307,20.307,0,0,1,4.122,9.193,23.893,23.893,0,0,1-2.214,14.8,13.024,13.024,0,0,1-6.347,6.211,34.57,34.57,0,0,0,4.682-7.953,19.105,19.105,0,0,0,.441-13.035c-1.927-5.782-5.85-11.211-11.549-13.721C391.829,366.24,386.158,366.385,380.86,367.292Z" transform="translate(-349.103 -285.828)" fill="#e2e2e2"/>
        <path id="Path_70" data-name="Path 70" d="M403.1,415.465a5.114,5.114,0,0,1,4.67-1.222,6.173,6.173,0,0,1,4,3.039,6.254,6.254,0,0,1-.1,5.4,6.573,6.573,0,0,1-4.406,3.01c1.182-1.9,2.666-4.176,1.8-6.5C408.123,416.787,405.394,415.971,403.1,415.465Z" transform="translate(-365.021 -321.102)" fill="#e2e2e2"/>
        <path id="Path_71" data-name="Path 71" d="M521.6,440.53a12.713,12.713,0,0,1,1.828,9.363,15.435,15.435,0,0,1-5.608,9.488,14.183,14.183,0,0,1-4.792,2.322c3.294-2.22,6.381-5.048,7.928-8.789C522.655,449.02,522.478,444.6,521.6,440.53Z" transform="translate(-443.704 -340.03)" fill="#e2e2e2"/>
      </g>
      <g id="Group_11421" data-name="Group 11421" transform="translate(54.252 146.841)">
        <path id="Path_3910" data-name="Path 3910" d="M-179.44-47.526l3.365-18.6h5.617l3.343,18.6h-3.843l-.568-3.729h-3.5l-.546,3.729Zm5.025-7.8h2.274l-1.137-7.5Zm14.713-10.8q-.068,3.115-.1,5.139t-.057,3.4q-.023,1.376-.023,2.308v1.887l3.57-.136q.045.75.068,1.478t.023,1.455q0,.75-.023,1.512t-.068,1.558h-7.345q.068-3.184.1-6.526t.034-6.526v-2.865q0-1.387-.023-2.683Zm7.117,4.616a4.663,4.663,0,0,1,.557-2.4,4.474,4.474,0,0,1,1.41-1.5,5.456,5.456,0,0,1,1.887-.773,9.734,9.734,0,0,1,1.99-.216q.273,0,.694.023t.887.068q.466.045.955.125a6.553,6.553,0,0,1,.921.216q.045.591.068,1.1t.023,1.171q0,.659-.023,1.262t-.068,1.148q-.182-.023-.466-.068t-.591-.068l-.614-.045q-.307-.023-.58-.023a2.887,2.887,0,0,0-1.592.341,1.071,1.071,0,0,0-.5.932,1.389,1.389,0,0,0,.159.648,2.506,2.506,0,0,0,.421.58,5.011,5.011,0,0,0,.591.523q.33.25.671.478.546.387,1.1.853a5.741,5.741,0,0,1,1.012,1.114,6.042,6.042,0,0,1,.75,1.5,6,6,0,0,1,.3,1.967,5.453,5.453,0,0,1-.5,2.456,4.765,4.765,0,0,1-1.285,1.626,5.084,5.084,0,0,1-1.751.91,6.783,6.783,0,0,1-1.921.284q-.432,0-1.057-.057t-1.262-.159q-.637-.1-1.205-.25a3.5,3.5,0,0,1-.91-.352q-.091-.409-.148-.841a7.356,7.356,0,0,1-.057-.955q0-.364.034-.887t.08-1.069q.045-.546.1-1.046t.1-.841a5.372,5.372,0,0,0,.728.307q.478.171,1.035.33t1.126.273a5.181,5.181,0,0,0,1,.114,1.659,1.659,0,0,0,1.092-.307,1.03,1.03,0,0,0,.364-.83,1.45,1.45,0,0,0-.409-1.012,6.4,6.4,0,0,0-1.023-.875q-.614-.432-1.33-.921a7.9,7.9,0,0,1-1.33-1.148,5.782,5.782,0,0,1-1.023-1.558A5.152,5.152,0,0,1-152.585-61.511Zm24.536-4.616q-.068,1.433-.1,2.706t-.057,2.513q-.023,1.239-.034,2.5t-.011,2.695q0,1.683.011,3.661t.034,4.525h-3.775q.045-1.364.068-2.854t.045-3.4h-3.365q0,1.342.011,2.877t.034,3.377h-3.775q.023-1,.045-2.047t.045-2.251q.023-1.205.023-2.638v-5.855q0-1.126-.011-2.058t-.011-1.808v-1.944h3.843q-.091,1.887-.136,3.491t-.068,3.24h3.365v-1.9q0-.853-.011-1.637t-.011-1.546v-1.649Zm3.388,18.6,3.365-18.6h5.617l3.343,18.6h-3.843l-.568-3.729h-3.5l-.546,3.729Zm5.025-7.8h2.274l-1.137-7.5Zm18.351-6.594H-103.9q-.045,2.024-.068,4.1t-.023,4.491v4.036q0,.6.011.978t.011.785h-3.82q.023-1,.045-2.081t.034-2.342q.011-1.262.023-2.729t.011-3.24v-2.251q0-.955-.023-1.751h-2.615v-4.207h9.028Zm12.484,0h-2.615q-.045,2.024-.068,4.1t-.023,4.491v4.036q0,.6.011.978t.011.785H-95.3q.023-1,.045-2.081t.034-2.342q.011-1.262.023-2.729t.011-3.24v-2.251q0-.955-.023-1.751h-2.615v-4.207H-88.8Zm5.458,7.959v-3.684q0-1.455-.011-2.479t-.011-1.887h-1.683q-.023-.523-.045-1.023t-.023-1.023q0-.523.023-1.046t.045-1.023h7q.023.523.023,1.035v2.058q0,.5-.023,1.023H-79.7q-.045,1.524-.057,3t-.011,3.3v1.751h1.728q.023.819.023,1.615v3.218q0,.807-.023,1.6h-7q-.023-.8-.045-1.6t-.023-1.6q0-.819.023-1.615t.045-1.615Z" transform="translate(179.44 66.4)" stroke="rgba(0,0,0,0)" stroke-width="1"/>
        <path id="Path_3911" data-name="Path 3911" d="M-55.28-47.068q.023-.364.034-1.239t.011-2.069V-61.712q0-1.3-.011-2.319t-.034-1.615q.887,0,1.956-.011l2.183-.023q1.114-.011,2.183-.034t2-.045q.023.341.023.659v.637q0,.659-.023,1.364t-.068,1.41H-51.6v3.411h3.8v3.866h-3.8q0,1.137.011,2.251t.023,2.092q.011.978.034,1.762t.045,1.239ZM-41.523-53.5v-3.684q0-1.455-.011-2.479t-.011-1.887h-1.683q-.023-.523-.045-1.023T-43.3-63.6q0-.523.023-1.046t.045-1.023h7q.023.523.023,1.035v2.058q0,.5-.023,1.023h-1.66q-.045,1.524-.057,3t-.011,3.3V-53.5h1.728q.023.819.023,1.615v3.218q0,.807-.023,1.6h-7q-.023-.8-.045-1.6t-.023-1.6q0-.819.023-1.615t.045-1.615Zm18.055-7.959h-2.615q-.045,2.024-.068,4.1t-.023,4.491v4.036q0,.6.011.978t.011.785h-3.82q.023-1,.045-2.081t.034-2.342q.011-1.262.023-2.729t.011-3.24v-2.251q0-.955-.023-1.751h-2.615v-4.207h9.028Z" transform="translate(90.572 92.945)" stroke="rgba(0,0,0,0)" stroke-width="1"/>
      </g>
    </g>
  </g>
</svg>
