<svg xmlns="http://www.w3.org/2000/svg" width="130.051" height="130.051" viewBox="0 0 130.051 130.051">
  <path id="user-check-solid" d="M48.447,2A32.524,32.524,0,0,0,30.3,61.51,46.581,46.581,0,0,0,2,104.183h9.289A37.09,37.09,0,0,1,48.447,67.025a36.718,36.718,0,0,1,17.563,4.5,37.725,37.725,0,1,0,7.112-6.677A47.068,47.068,0,0,0,66.59,61.51,32.524,32.524,0,0,0,48.447,2Zm0,9.289A23.223,23.223,0,1,1,25.223,34.513,23.152,23.152,0,0,1,48.447,11.289ZM94.893,67.025A27.868,27.868,0,1,1,67.025,94.893,27.806,27.806,0,0,1,94.893,67.025Zm15.24,15.24-15.24,15.24L84.3,86.91l-6.677,6.677,13.934,13.934,3.338,3.193,3.338-3.193L116.81,88.942Z" transform="translate(-2 -2)" fill="#fecf08"/>
</svg>
