<svg xmlns="http://www.w3.org/2000/svg" width="257" height="98.636" viewBox="0 0 257 98.636">
  <g id="Header-LOGO" transform="translate(-99.815 -345)">
    <path id="Path_2166" data-name="Path 2166" d="M366.768,433.783l27.691-27.692L366.679,378.3a41.241,41.241,0,0,0,.089,55.479" transform="translate(-89.823 -11.677)" fill="#c6001c"/>
    <path id="Path_2167" data-name="Path 2167" d="M393,435.638A41.139,41.139,0,0,1,366.4,425.9l27.616-27.616,3.869-3.87L366.3,362.822A41.31,41.31,0,1,1,393,435.638m-30.643-69.011,27.78,27.788L362.45,422.106a41.24,41.24,0,0,1-.089-55.479M393,345a49.318,49.318,0,1,0,49.316,49.32A49.376,49.376,0,0,0,393,345" transform="translate(-85.505)" fill="#1a1818"/>
    <path id="Path_2177" data-name="Path 2177" d="M305.606,460.39h-3.483V448.252h3.483c6.331,0,8.575,1.571,8.575,6s-2.4,6.136-8.575,6.136m1.7-16.057h-9.63v19.976h9.788c6.995,0,11.169-3.78,11.169-10.11,0-6.362-4.023-9.866-11.327-9.866" transform="translate(-69.373 -34.828)" fill="#1a1818"/>
    <path id="Path_2178" data-name="Path 2178" d="M264.974,455.958l3.5-7.455,3.5,7.455Zm1.136-11.625-9.838,19.976h4.774l2.044-4.433h10.682l2.017,4.433h4.744l-9.7-19.976Z" transform="translate(-54.857 -34.828)" fill="#1a1818"/>
    <path id="Path_2179" data-name="Path 2179" d="M228.059,458.1l-5.8-13.772h-5.637v19.976h4.027V450.9l5.607,13.2.089.208h3.449l5.671-13.412v13.412h4.027V444.333h-5.529Z" transform="translate(-40.955 -34.828)" fill="#1a1818"/>
    <path id="Path_2180" data-name="Path 2180" d="M182.786,452.9v-4.755h6.93c3.3,0,4.3.552,4.3,2.363,0,1.833-1.006,2.393-4.3,2.393Zm15.685-2.47c0-5.376-4.144-6.1-8.2-6.1H178.335v19.976h4.451v-7.591h5.457l5.6,7.591h5.5l-5.967-7.919a5.726,5.726,0,0,0,5.094-5.957" transform="translate(-27.53 -34.827)" fill="#1a1818"/>
    <path id="Path_2181" data-name="Path 2181" d="M143.953,455.958l3.5-7.455,3.5,7.455Zm1.134-11.625-9.837,19.976h4.774l2.045-4.433h10.681l2.016,4.433h4.746l-9.7-19.976Z" transform="translate(-12.424 -34.828)" fill="#1a1818"/>
    <path id="Path_2182" data-name="Path 2182" d="M113.668,452.011l-4.574-.692c-4.026-.5-4.026-1.4-4.026-1.838,0-1.528,2.469-2.073,4.78-2.073,4.833,0,5.994,1.7,6.446,2.983l.111.314,4.206-1.382-.119-.33c-.481-1.336-1.947-5.4-10.538-5.4-6.022,0-9.339,2.177-9.339,6.128,0,3.122,2.574,5.193,7.248,5.832l4.622.639c1.777.221,3.9.76,3.9,2.077,0,1.356-2.223,2.34-5.285,2.34-4.711,0-6.169-1.744-6.913-3.263l-.129-.262-4.239,1.331.1.323c.418,1.359,2.453,5.789,11.075,5.789,6.255,0,9.841-2.407,9.841-6.6,0-3.239-2.343-5.171-7.163-5.911" transform="translate(0 -34.568)" fill="#1a1818"/>
    <path id="Path_2183" data-name="Path 2183" d="M284.115,386.586l.016-18.954-7.86,2.151s.025,16.8.029,16.8v.708a16.122,16.122,0,0,1-.538,4.654,5.886,5.886,0,0,1-2.051,3.04,7.032,7.032,0,0,1-3.424,1.281,11,11,0,0,1-1.334.047c-.283-.014-.519-.031-.664-.047a7.042,7.042,0,0,1-3.425-1.281,5.883,5.883,0,0,1-2.049-3.04,16.192,16.192,0,0,1-.538-4.654s0-.112.016-.112l.049-12.588-7.861,2.152-.005,10.436v.112a16.082,16.082,0,0,1-.537,4.654,5.873,5.873,0,0,1-2.05,3.04,7.047,7.047,0,0,1-3.424,1.281,11.046,11.046,0,0,1-1.336.047c-.284-.014-.515-.031-.66-.047a7.053,7.053,0,0,1-3.427-1.281,5.884,5.884,0,0,1-2.05-3.04,16.059,16.059,0,0,1-.537-4.654,1.314,1.314,0,0,1,.021-.289c.028-5.381.067-12.412.067-12.412l-7.865,2.152-.023,10.549a15.979,15.979,0,0,1-.54,4.654,5.879,5.879,0,0,1-2.046,3.04,7.057,7.057,0,0,1-3.429,1.281c-.2.027-.545.046-.981.062-.433-.016-.781-.034-.981-.062a7.047,7.047,0,0,1-3.425-1.281,5.879,5.879,0,0,1-2.049-3.04,12.991,12.991,0,0,1-.484-2.994v-14.36l-7.86,2.151v2.264h0l.03,17.511a16.091,16.091,0,0,1-.54,4.653,5.876,5.876,0,0,1-2.049,3.04,7.054,7.054,0,0,1-3.425,1.281,11.258,11.258,0,0,1-1.333.047c-.284-.016-.519-.03-.664-.047-.208-.025-.4-.07-.6-.108a29.1,29.1,0,0,1-3,6.712c.482.077.974.153,1.495.2.339.032.708.042,1.062.061s.713.054,1.089.063a.056.056,0,0,1,.055.032s1.641,0,1.641-.022a20.557,20.557,0,0,0,7.708-1.378c3.54-1.616,5.124-5.065,5.831-8.06a5.082,5.082,0,0,0,.236-.755,23.271,23.271,0,0,0,7.2.988h.127a21.228,21.228,0,0,0,8.367-1.4,9.109,9.109,0,0,0,2.462-1.609c.064.057.137.1.2.156a9.008,9.008,0,0,0,.938.727,8.608,8.608,0,0,0,1.324.726,12.878,12.878,0,0,0,1.573.563c.256.073.549.125.82.189.313.073.607.157.935.216a31.09,31.09,0,0,0,4.223.433s1.644,0,1.644-.021a20.545,20.545,0,0,0,7.7-1.379,9.122,9.122,0,0,0,2.461-1.609c.075.066.155.112.231.178a9.179,9.179,0,0,0,.9.7,8.533,8.533,0,0,0,1.328.73,15.244,15.244,0,0,0,3.369.979c.108.018.231.028.341.045.527.086,1.068.169,1.638.221.34.032.709.041,1.064.06s.712.053,1.086.064a.056.056,0,0,1,.056.031s1.641,0,1.641-.021a20.574,20.574,0,0,0,7.708-1.379c6.945-3.171,6.38-13.408,6.384-13.405-.016-.364-.025-1.839,0-1.839" transform="translate(-34.871 -7.935)" fill="#1a1818"/>
    <path id="Path_2184" data-name="Path 2184" d="M159.294,395.706a5.877,5.877,0,0,1-2.049,3.04,7.051,7.051,0,0,1-3.427,1.281c-.319.042-1.029.068-1.892.088-.631-.016-1.177-.032-1.555-.057v0c-.124-.011-.227-.018-.308-.029a7.043,7.043,0,0,1-3.425-1.281,5.881,5.881,0,0,1-2.049-3.04,9.651,9.651,0,0,1,0-6.07,5.867,5.867,0,0,1,2.049-3.038,7.051,7.051,0,0,1,3.425-1.284c.081-.011.184-.019.308-.029v0c.379-.022.924-.042,1.555-.056.863.02,1.572.05,1.892.088a7.059,7.059,0,0,1,3.427,1.284,5.863,5.863,0,0,1,2.049,3.038,9.626,9.626,0,0,1,0,6.07m7.951,1.381a31.642,31.642,0,0,0,.308-3.153c.034-.923,0-2.366-.014-2.733-.058-1.034-.152-2.023-.294-2.947a12.784,12.784,0,0,0-1.2-3.889,9.8,9.8,0,0,0-4.779-4.612,20.368,20.368,0,0,0-7.544-1.371v-.03h-3.564v.03a20.44,20.44,0,0,0-7.589,1.371,8.548,8.548,0,0,0-1.772,1.086c-.006,0-.019-.007-.025,0a2.424,2.424,0,0,0-.187.162,1.029,1.029,0,0,0-.159.148c-.362.346-.851.849-1.073,1.079l-.008-.007c-.022.025-.041.055-.064.081s-.053.053-.053.053l0,.01a10.97,10.97,0,0,0-1.395,2,12.764,12.764,0,0,0-1.2,3.889c-.136.888-.23,1.835-.29,2.823a46.243,46.243,0,0,1-.671,4.629,5.884,5.884,0,0,1-2.049,3.04,7.043,7.043,0,0,1-3.425,1.281c-.2.027-.547.046-.982.062-.435-.016-.784-.034-.983-.062a7.056,7.056,0,0,1-3.426-1.281,5.883,5.883,0,0,1-2.048-3.04,15.239,15.239,0,0,1-.527-4.176l-.023-6.306V380.5l-7.861-2.151.034,13.232h0v1.022a13.209,13.209,0,0,1-.492,3.1,5.881,5.881,0,0,1-2.049,3.04,7.048,7.048,0,0,1-3.427,1.281c-.245.031-1.77.044-1.977.071H99.815v6.89h8.343v-.021a20.559,20.559,0,0,0,7.707-1.379,9.1,9.1,0,0,0,2.461-1.608,9.137,9.137,0,0,0,2.461,1.608,21.239,21.239,0,0,0,8.367,1.4h.129a21.229,21.229,0,0,0,8.366-1.4,9.124,9.124,0,0,0,2.462-1.608,9.117,9.117,0,0,0,2.46,1.608,20.41,20.41,0,0,0,7.589,1.372v.029h3.564v-.029a20.3,20.3,0,0,0,7.544-1.372,9.8,9.8,0,0,0,4.779-4.613,12.749,12.749,0,0,0,1.2-3.889" transform="translate(0 -11.694)" fill="#1a1818"/>
  </g>
</svg>
