<svg xmlns="http://www.w3.org/2000/svg" width="126.542" height="70.357" viewBox="0 0 126.542 70.357">
  <g id="Group_11429" data-name="Group 11429" transform="translate(-3622 286)">
    <g id="Group_11423" data-name="Group 11423" transform="translate(2767.44 -168.6)">
      <path id="Path_3910" data-name="Path 3910" d="M-179.44-42.851l4.2-23.209h7.008l4.171,23.209h-4.795l-.709-4.653h-4.369l-.681,4.653Zm6.27-9.732h2.837l-1.419-9.363Zm18.357-13.477q-.085,3.887-.128,6.412t-.071,4.242q-.028,1.717-.028,2.88v2.355l4.455-.17q.057.936.085,1.844t.028,1.816q0,.936-.028,1.887t-.085,1.944h-9.164q.085-3.972.128-8.143t.043-8.143v-3.575q0-1.731-.028-3.348Zm8.881,5.76a5.818,5.818,0,0,1,.7-2.993,5.582,5.582,0,0,1,1.759-1.873,6.808,6.808,0,0,1,2.355-.965,12.145,12.145,0,0,1,2.483-.27q.34,0,.865.028t1.107.085q.582.057,1.192.156a8.176,8.176,0,0,1,1.149.27q.057.738.085,1.376t.028,1.461q0,.823-.028,1.575t-.085,1.433q-.227-.028-.582-.085t-.738-.085l-.766-.057q-.383-.028-.724-.028a3.6,3.6,0,0,0-1.986.426,1.336,1.336,0,0,0-.624,1.163,1.733,1.733,0,0,0,.2.809,3.127,3.127,0,0,0,.525.724,6.254,6.254,0,0,0,.738.653q.411.312.837.6.681.482,1.376,1.064a7.165,7.165,0,0,1,1.263,1.39,7.538,7.538,0,0,1,.936,1.873,7.483,7.483,0,0,1,.369,2.454,6.8,6.8,0,0,1-.624,3.064,5.946,5.946,0,0,1-1.6,2.029,6.344,6.344,0,0,1-2.185,1.135,8.463,8.463,0,0,1-2.4.355q-.539,0-1.319-.071t-1.575-.2q-.794-.128-1.5-.312a4.371,4.371,0,0,1-1.135-.44q-.114-.511-.184-1.05A9.179,9.179,0,0,1-146.1-45.8q0-.454.043-1.107t.1-1.334q.057-.681.128-1.305t.128-1.05a6.7,6.7,0,0,0,.908.383q.6.213,1.291.411t1.4.34a6.464,6.464,0,0,0,1.248.142,2.07,2.07,0,0,0,1.362-.383,1.285,1.285,0,0,0,.454-1.036A1.81,1.81,0,0,0-139.548-52a7.983,7.983,0,0,0-1.277-1.092q-.766-.539-1.66-1.149a9.861,9.861,0,0,1-1.66-1.433,7.215,7.215,0,0,1-1.277-1.944A6.428,6.428,0,0,1-145.932-60.3Zm30.614-5.76q-.085,1.787-.128,3.376t-.071,3.135q-.028,1.546-.043,3.121t-.014,3.362q0,2.1.014,4.568t.043,5.646h-4.71q.057-1.7.085-3.561t.057-4.242h-4.2q0,1.674.014,3.589t.043,4.213h-4.71q.028-1.248.057-2.554t.057-2.809q.028-1.5.028-3.291V-58.81q0-1.4-.014-2.568t-.014-2.256V-66.06h4.8q-.113,2.355-.17,4.355t-.085,4.043h4.2V-60.03q0-1.064-.014-2.043T-120.113-64V-66.06Zm4.228,23.209,4.2-23.209h7.008l4.171,23.209h-4.795l-.709-4.653h-4.369l-.681,4.653Zm6.27-9.732h2.837l-1.419-9.363Zm22.9-8.228h-3.263q-.057,2.525-.085,5.121t-.028,5.6v5.036q0,.752.014,1.22t.014.979h-4.767q.028-1.248.057-2.6t.043-2.922q.014-1.575.028-3.4t.014-4.043v-2.809q0-1.192-.028-2.185h-3.263V-66.06h11.264Zm15.577,0h-3.263q-.057,2.525-.085,5.121t-.028,5.6v5.036q0,.752.014,1.22t.014.979h-4.767q.028-1.248.057-2.6t.043-2.922q.014-1.575.028-3.4t.014-4.043v-2.809q0-1.192-.028-2.185H-77.61V-66.06h11.264Zm6.809,9.93v-4.6q0-1.816-.014-3.093t-.014-2.355h-2.1q-.028-.653-.057-1.277t-.028-1.277q0-.653.028-1.305t.057-1.277h8.739q.028.653.028,1.291V-62.2q0,.624-.028,1.277H-55q-.057,1.9-.071,3.745t-.014,4.114v2.185h2.156q.028,1.021.028,2.014v4.015q0,1.007-.028,2h-8.739q-.028-.993-.057-2t-.028-2q0-1.021.028-2.014t.057-2.014Z" transform="translate(1034 -51)" fill="#fecf08"/>
      <path id="Path_3911" data-name="Path 3911" d="M-55.28-42.438q.028-.454.043-1.546t.014-2.582V-60.71q0-1.617-.014-2.894t-.043-2.014q1.107,0,2.44-.014l2.724-.028q1.39-.014,2.724-.043t2.5-.057q.028.426.028.823v.794q0,.823-.028,1.7t-.085,1.759h-5.7v4.256h4.738V-51.6h-4.738q0,1.419.014,2.809t.028,2.61q.014,1.22.043,2.2t.057,1.546Zm17.166-8.029v-4.6q0-1.816-.014-3.093t-.014-2.355h-2.1q-.028-.653-.057-1.277t-.028-1.277q0-.653.028-1.305t.057-1.277H-31.5q.028.653.028,1.291v2.568q0,.624-.028,1.277h-2.071q-.057,1.9-.071,3.745t-.014,4.114v2.185H-31.5q.028,1.021.028,2.014v4.015q0,1.007-.028,2h-8.739q-.028-.993-.057-2t-.028-2q0-1.021.028-2.014t.057-2.014Zm22.528-9.93h-3.263q-.057,2.525-.085,5.121t-.028,5.6v5.036q0,.752.014,1.22t.014.979H-23.7q.028-1.248.057-2.6t.043-2.922q.014-1.575.028-3.4t.014-4.043v-2.809q0-1.192-.028-2.185h-3.263v-5.249h11.264Z" transform="translate(953.875 -20.72)" fill="#fecf08"/>
    </g>
    <path id="Path_3914" data-name="Path 3914" d="M-411.041-67q-.037.734-.055,1.3t-.031,1.077q-.012.514-.018,1.058t-.006,1.242h.049l2.178-4.685h2.275l-2.4,4.881,2.545,5.138h-2.288l-2.312-4.844h-.049v1.028q0,.575.006,1.2t.012,1.3q.006.667.006,1.315h-2.153q.012-.538.024-1.119t.024-1.26q.012-.679.012-1.468V-64q0-.581-.006-1.058t-.006-.924V-67Zm5.309,2.887h1.8v7.12h-1.8Zm.942-3.034a1.2,1.2,0,0,1,.532.116,1.232,1.232,0,0,1,.4.3,1.351,1.351,0,0,1,.245.41,1.226,1.226,0,0,1,.086.434,1.287,1.287,0,0,1-.1.52,1.338,1.338,0,0,1-.281.416,1.384,1.384,0,0,1-.4.281,1.143,1.143,0,0,1-.483.1,1.428,1.428,0,0,1-.563-.1,1.279,1.279,0,0,1-.41-.269,1.036,1.036,0,0,1-.245-.385,1.323,1.323,0,0,1-.079-.453,1.354,1.354,0,0,1,.092-.477,1.572,1.572,0,0,1,.257-.447,1.236,1.236,0,0,1,.41-.324A1.214,1.214,0,0,1-404.79-67.145Zm3.988,2.838v.661a2.153,2.153,0,0,1,.716-.581,1.887,1.887,0,0,1,.862-.214,1.613,1.613,0,0,1,.954.294,1.4,1.4,0,0,1,.551.7,2.863,2.863,0,0,1,.1.508,5.593,5.593,0,0,1,.043.728v5.224h-1.8V-60.54a1.017,1.017,0,0,0-.2-.74.666.666,0,0,0-.471-.19.708.708,0,0,0-.557.226.84.84,0,0,0-.2.581v3.67h-1.774q0-.4.006-.85t.006-.893v-2.416q0-.465-.006-1.015t-.006-1.125v-1.015Zm7.059,3.462a1.839,1.839,0,0,0,.526.856,1.463,1.463,0,0,0,1.015.33,3.164,3.164,0,0,0,.422-.031,4.109,4.109,0,0,0,.447-.086q.22-.055.416-.122t.343-.128q.024.355.031.752t.006.789q0,.648-.037,1.162a4.824,4.824,0,0,1-2.141.465,5.229,5.229,0,0,1-1.113-.122,3.256,3.256,0,0,1-1.089-.465,2.927,2.927,0,0,1-.765-.716,3.78,3.78,0,0,1-.471-.844,3.842,3.842,0,0,1-.232-.85,5.183,5.183,0,0,1-.061-.746,4.787,4.787,0,0,1,.116-1.021,4.242,4.242,0,0,1,.361-1.015,3.792,3.792,0,0,1,.624-.887,2.79,2.79,0,0,1,.893-.636,3.177,3.177,0,0,1,1.321-.281,2.914,2.914,0,0,1,1.321.294,2.556,2.556,0,0,1,.954.807,2.464,2.464,0,0,1,.447,1.089,9.423,9.423,0,0,1,.092,1.407Zm.7-2.275a.716.716,0,0,0-.489.214,1.232,1.232,0,0,0-.306.752h1.6a1.162,1.162,0,0,0-.287-.728A.725.725,0,0,0-393.046-63.121Zm4.612-.734a2.454,2.454,0,0,1,.893-.459,3.7,3.7,0,0,1,.966-.128,4.063,4.063,0,0,1,.7.061,5.493,5.493,0,0,1,.667.159q.024.746.031,1.217t.006.728q0,.367-.012.52t-.024.287a.736.736,0,0,1-.122-.024q-.1-.024-.232-.049t-.287-.043a2.514,2.514,0,0,0-.3-.018,1.108,1.108,0,0,0-.373.055.21.21,0,0,0-.153.214.382.382,0,0,0,.1.251,1.857,1.857,0,0,0,.239.232,2.934,2.934,0,0,0,.306.22q.165.1.312.19a2.633,2.633,0,0,1,.618.593,1.57,1.57,0,0,1,.288.985,1.689,1.689,0,0,1-.239.917,2.056,2.056,0,0,1-.606.624,2.546,2.546,0,0,1-.826.355,3.845,3.845,0,0,1-.9.11q-.171,0-.391-.012a4.267,4.267,0,0,1-.447-.049q-.226-.037-.447-.092a2.235,2.235,0,0,1-.4-.141,2.478,2.478,0,0,1-.086-.447,4.618,4.618,0,0,1-.024-.471q0-.11.006-.269t.018-.324q.012-.165.037-.324t.049-.269q.135.061.312.128t.373.128q.2.061.385.1a1.64,1.64,0,0,0,.361.043.636.636,0,0,0,.379-.1.315.315,0,0,0,.135-.269.432.432,0,0,0-.086-.263,1.312,1.312,0,0,0-.208-.22,1.564,1.564,0,0,0-.269-.183q-.147-.08-.269-.141-.232-.122-.477-.269a1.962,1.962,0,0,1-.44-.361,1.693,1.693,0,0,1-.318-.52,2.013,2.013,0,0,1-.122-.746,2.792,2.792,0,0,1,.2-1.028A2.215,2.215,0,0,1-388.434-63.855Zm4.734-.257h1.8v7.12h-1.8Zm.942-3.034a1.2,1.2,0,0,1,.532.116,1.232,1.232,0,0,1,.4.3,1.351,1.351,0,0,1,.245.41,1.225,1.225,0,0,1,.086.434,1.287,1.287,0,0,1-.1.52,1.338,1.338,0,0,1-.281.416,1.384,1.384,0,0,1-.4.281,1.143,1.143,0,0,1-.483.1,1.428,1.428,0,0,1-.563-.1,1.278,1.278,0,0,1-.41-.269,1.036,1.036,0,0,1-.245-.385,1.323,1.323,0,0,1-.079-.453,1.354,1.354,0,0,1,.092-.477,1.573,1.573,0,0,1,.257-.447,1.236,1.236,0,0,1,.41-.324A1.214,1.214,0,0,1-382.758-67.145Zm4.844,2.7a2.36,2.36,0,0,1,2.135.979,5.131,5.131,0,0,1,.642,2.814,5.126,5.126,0,0,1-.642,2.82,2.366,2.366,0,0,1-2.135.973,2.379,2.379,0,0,1-2.147-.973,5.126,5.126,0,0,1-.642-2.82,5.131,5.131,0,0,1,.642-2.814A2.374,2.374,0,0,1-377.914-64.442Zm0,4.71a.933.933,0,0,0,.434-.1.918.918,0,0,0,.312-.257,1.117,1.117,0,0,0,.184-.361,1.448,1.448,0,0,0,.061-.422,1.51,1.51,0,0,0-.061-.428,1.108,1.108,0,0,0-.184-.367.918.918,0,0,0-.312-.257.933.933,0,0,0-.434-.1.861.861,0,0,0-.752.355,1.345,1.345,0,0,0-.251.8,1.448,1.448,0,0,0,.061.422,1.055,1.055,0,0,0,.19.361,1,1,0,0,0,.312.257A.924.924,0,0,0-377.914-59.732Zm5.872-7.548q-.061,1.7-.092,3.45t-.031,3.719v2.171q0,.324.006.526t.006.422h-1.835q.037-1.077.049-2.52t.012-3.352v-1.413q0-.581-.006-1.058t-.006-.924V-67.28Zm3.878,2.838a2.36,2.36,0,0,1,2.135.979,5.131,5.131,0,0,1,.642,2.814,5.126,5.126,0,0,1-.642,2.82,2.366,2.366,0,0,1-2.135.973,2.379,2.379,0,0,1-2.147-.973,5.126,5.126,0,0,1-.642-2.82,5.131,5.131,0,0,1,.642-2.814A2.374,2.374,0,0,1-368.164-64.442Zm0,4.71a.933.933,0,0,0,.434-.1.918.918,0,0,0,.312-.257,1.118,1.118,0,0,0,.184-.361,1.448,1.448,0,0,0,.061-.422,1.51,1.51,0,0,0-.061-.428,1.108,1.108,0,0,0-.184-.367.918.918,0,0,0-.312-.257.933.933,0,0,0-.434-.1.861.861,0,0,0-.752.355,1.345,1.345,0,0,0-.251.8,1.448,1.448,0,0,0,.061.422,1.055,1.055,0,0,0,.19.361,1,1,0,0,0,.312.257A.924.924,0,0,0-368.164-59.732Zm8.208,1.884a3.69,3.69,0,0,1-.85.526,2.175,2.175,0,0,1-.838.159,2.454,2.454,0,0,1-1.113-.251,2.586,2.586,0,0,1-.862-.7,3.3,3.3,0,0,1-.563-1.07,4.431,4.431,0,0,1-.2-1.37,4.905,4.905,0,0,1,.226-1.511,4.189,4.189,0,0,1,.624-1.236,3.093,3.093,0,0,1,.924-.838,2.2,2.2,0,0,1,1.125-.306,1.945,1.945,0,0,1,1.529.746v-.612h1.737v3.939q0,1.089-.031,1.847t-.092,1.2a3.085,3.085,0,0,1-.985,1.988,3.117,3.117,0,0,1-2.11.691,4.35,4.35,0,0,1-1.046-.122,3.654,3.654,0,0,1-.911-.355v-1.5a3.92,3.92,0,0,0,1.786.453,1.912,1.912,0,0,0,1.229-.343,1.188,1.188,0,0,0,.422-.979Zm-2.092-3.56a1.178,1.178,0,0,0,.269.807.9.9,0,0,0,.71.306,1.037,1.037,0,0,0,.434-.092,1.145,1.145,0,0,0,.355-.251,1.147,1.147,0,0,0,.239-.373,1.224,1.224,0,0,0,.086-.459,1.223,1.223,0,0,0-.08-.44,1.062,1.062,0,0,0-.226-.361,1.058,1.058,0,0,0-.343-.239,1.026,1.026,0,0,0-.416-.086.941.941,0,0,0-.734.33A1.241,1.241,0,0,0-362.047-61.408Zm10.459-2.9-2.52,9.53h-1.847l.575-2.422-1.884-7.107h1.933l.673,3.56q.061.281.1.428t.141.147q.159,0,.269-.575l.7-3.56Zm2.973,7.315q.037-1.162.049-2.318t.012-2.2q0-1.48-.018-2.814T-348.615-67q.6-.061,1.2-.1t1.229-.043a10.358,10.358,0,0,1,1.676.128,3.771,3.771,0,0,1,1.358.477,2.519,2.519,0,0,1,.911.96A3.258,3.258,0,0,1-341.9-64a3.161,3.161,0,0,1-.5,1.884,3,3,0,0,1-1.34,1.028l1.994,4.1h-2.177l-1.627-3.731q-.5.037-1.04.037,0,.942.012,1.847t.073,1.847Zm2.031-5.554q.379.037.7.037a1.766,1.766,0,0,0,1.181-.312,1.192,1.192,0,0,0,.349-.936,1.515,1.515,0,0,0-.1-.612.921.921,0,0,0-.281-.367,1.015,1.015,0,0,0-.416-.184,2.523,2.523,0,0,0-.508-.049q-.2,0-.434.018t-.483.055Zm8.049,1.7a1.839,1.839,0,0,0,.526.856,1.463,1.463,0,0,0,1.015.33,3.164,3.164,0,0,0,.422-.031,4.11,4.11,0,0,0,.447-.086q.22-.055.416-.122t.343-.128q.024.355.031.752t.006.789q0,.648-.037,1.162a4.824,4.824,0,0,1-2.141.465,5.229,5.229,0,0,1-1.113-.122,3.256,3.256,0,0,1-1.089-.465,2.927,2.927,0,0,1-.765-.716,3.778,3.778,0,0,1-.471-.844,3.842,3.842,0,0,1-.232-.85,5.183,5.183,0,0,1-.061-.746,4.787,4.787,0,0,1,.116-1.021,4.242,4.242,0,0,1,.361-1.015,3.792,3.792,0,0,1,.624-.887,2.79,2.79,0,0,1,.893-.636,3.177,3.177,0,0,1,1.321-.281,2.913,2.913,0,0,1,1.321.294,2.556,2.556,0,0,1,.954.807,2.464,2.464,0,0,1,.447,1.089,9.418,9.418,0,0,1,.092,1.407Zm.7-2.275a.716.716,0,0,0-.489.214,1.232,1.232,0,0,0-.306.752h1.6a1.162,1.162,0,0,0-.287-.728A.725.725,0,0,0-337.838-63.121Zm4.612-.734a2.454,2.454,0,0,1,.893-.459,3.7,3.7,0,0,1,.966-.128,4.063,4.063,0,0,1,.7.061,5.5,5.5,0,0,1,.667.159q.024.746.031,1.217t.006.728q0,.367-.012.52t-.024.287a.735.735,0,0,1-.122-.024q-.1-.024-.232-.049t-.287-.043a2.515,2.515,0,0,0-.3-.018,1.108,1.108,0,0,0-.373.055.21.21,0,0,0-.153.214.382.382,0,0,0,.1.251,1.855,1.855,0,0,0,.239.232,2.931,2.931,0,0,0,.306.22q.165.1.312.19a2.634,2.634,0,0,1,.618.593,1.57,1.57,0,0,1,.287.985,1.689,1.689,0,0,1-.239.917,2.056,2.056,0,0,1-.606.624,2.545,2.545,0,0,1-.826.355,3.845,3.845,0,0,1-.9.11q-.171,0-.391-.012a4.267,4.267,0,0,1-.447-.049q-.226-.037-.447-.092a2.235,2.235,0,0,1-.4-.141,2.478,2.478,0,0,1-.086-.447,4.618,4.618,0,0,1-.024-.471q0-.11.006-.269t.018-.324q.012-.165.037-.324t.049-.269q.135.061.312.128t.373.128q.2.061.385.1a1.64,1.64,0,0,0,.361.043.636.636,0,0,0,.379-.1.315.315,0,0,0,.135-.269.432.432,0,0,0-.086-.263,1.31,1.31,0,0,0-.208-.22,1.565,1.565,0,0,0-.269-.183q-.147-.08-.269-.141-.232-.122-.477-.269a1.962,1.962,0,0,1-.44-.361,1.693,1.693,0,0,1-.318-.52,2.014,2.014,0,0,1-.122-.746,2.793,2.793,0,0,1,.2-1.028A2.215,2.215,0,0,1-333.226-63.855Zm7.169,3.009a1.839,1.839,0,0,0,.526.856,1.463,1.463,0,0,0,1.015.33,3.163,3.163,0,0,0,.422-.031,4.11,4.11,0,0,0,.447-.086q.22-.055.416-.122t.343-.128q.024.355.031.752t.006.789q0,.648-.037,1.162a4.824,4.824,0,0,1-2.141.465,5.229,5.229,0,0,1-1.113-.122,3.256,3.256,0,0,1-1.089-.465A2.927,2.927,0,0,1-328-58.16a3.778,3.778,0,0,1-.471-.844,3.842,3.842,0,0,1-.232-.85,5.183,5.183,0,0,1-.061-.746,4.787,4.787,0,0,1,.116-1.021,4.241,4.241,0,0,1,.361-1.015,3.792,3.792,0,0,1,.624-.887,2.79,2.79,0,0,1,.893-.636,3.177,3.177,0,0,1,1.321-.281,2.913,2.913,0,0,1,1.321.294,2.556,2.556,0,0,1,.954.807,2.464,2.464,0,0,1,.447,1.089,9.418,9.418,0,0,1,.092,1.407Zm.7-2.275a.716.716,0,0,0-.489.214,1.232,1.232,0,0,0-.306.752h1.6a1.162,1.162,0,0,0-.287-.728A.725.725,0,0,0-325.36-63.121Zm9.835,6.129H-317.2v-.6a3.489,3.489,0,0,1-.93.544,2.631,2.631,0,0,1-.954.19,1.991,1.991,0,0,1-1.015-.269,2.5,2.5,0,0,1-.8-.752,3.929,3.929,0,0,1-.532-1.156,5.238,5.238,0,0,1-.2-1.468,5.589,5.589,0,0,1,.208-1.554,4.377,4.377,0,0,1,.569-1.254,2.767,2.767,0,0,1,.856-.832,2.031,2.031,0,0,1,1.07-.3,2.2,2.2,0,0,1,.954.214,2.725,2.725,0,0,1,.771.532v-.612h1.737Zm-3.768-4.416a1.161,1.161,0,0,0,.275.807.9.9,0,0,0,.7.306,1.064,1.064,0,0,0,.789-.33,1.155,1.155,0,0,0,.324-.844,1.223,1.223,0,0,0-.079-.44,1.062,1.062,0,0,0-.226-.361,1.058,1.058,0,0,0-.343-.239,1.026,1.026,0,0,0-.416-.086.941.941,0,0,0-.734.33A1.241,1.241,0,0,0-319.292-61.408Zm6.7-2.9.086.93a2.2,2.2,0,0,1,.355-.428,2.762,2.762,0,0,1,.434-.336,2.307,2.307,0,0,1,.453-.22,1.278,1.278,0,0,1,.422-.08q.024.318.043.728t.018.838q0,.489-.018.966t-.043.881a1.118,1.118,0,0,0-.306-.073,2.736,2.736,0,0,0-.33-.024.91.91,0,0,0-.667.214.722.722,0,0,0-.214.532v3.389h-1.8q.012-1.982.018-3.762t.006-3.554Zm6.4-.135a3.9,3.9,0,0,1,1.309.208q0,.208.006.447t.006.483q0,.257-.006.514t-.006.477a1.479,1.479,0,0,0-.991-.343,1.423,1.423,0,0,0-.612.116,1.15,1.15,0,0,0-.4.3,1.081,1.081,0,0,0-.214.4,1.491,1.491,0,0,0-.061.41,1.324,1.324,0,0,0,.1.508,1.381,1.381,0,0,0,.269.422,1.257,1.257,0,0,0,.4.287,1.144,1.144,0,0,0,.483.1,1.5,1.5,0,0,0,.514-.1,2.212,2.212,0,0,0,.514-.269q0,.4.006.838t.006.875q0,.428-.006.875t-.006.887a6.466,6.466,0,0,1-1.358.147,3.912,3.912,0,0,1-1.48-.263,3.027,3.027,0,0,1-1.1-.752,3.282,3.282,0,0,1-.691-1.193,4.874,4.874,0,0,1-.239-1.572,5.074,5.074,0,0,1,.22-1.523,3.242,3.242,0,0,1,.667-1.2,3.119,3.119,0,0,1,1.113-.789A3.914,3.914,0,0,1-306.191-64.442Zm4.526-2.838q-.037.685-.061,1.193t-.037.93q-.012.422-.018.783t-.006.728a2.172,2.172,0,0,1,.71-.581,1.826,1.826,0,0,1,.844-.214,1.71,1.71,0,0,1,.52.08,1.892,1.892,0,0,1,.459.214,1.523,1.523,0,0,1,.361.324,1.308,1.308,0,0,1,.226.41,2.913,2.913,0,0,1,.08.5q.031.324.031.7v5.224h-1.8v-3.67a.883.883,0,0,0-.177-.581.581.581,0,0,0-.471-.214.835.835,0,0,0-.544.2.6.6,0,0,0-.239.477v3.792h-1.8q.024-1.627.024-3.48v-5.841q0-.306-.006-.526t-.006-.44Zm6.948,6.435a1.839,1.839,0,0,0,.526.856,1.463,1.463,0,0,0,1.015.33,3.163,3.163,0,0,0,.422-.031,4.11,4.11,0,0,0,.447-.086q.22-.055.416-.122t.343-.128q.024.355.031.752t.006.789q0,.648-.037,1.162a4.824,4.824,0,0,1-2.141.465,5.229,5.229,0,0,1-1.113-.122,3.256,3.256,0,0,1-1.089-.465,2.927,2.927,0,0,1-.765-.716,3.78,3.78,0,0,1-.471-.844,3.842,3.842,0,0,1-.232-.85,5.183,5.183,0,0,1-.061-.746,4.787,4.787,0,0,1,.116-1.021,4.241,4.241,0,0,1,.361-1.015,3.792,3.792,0,0,1,.624-.887,2.79,2.79,0,0,1,.893-.636,3.177,3.177,0,0,1,1.321-.281,2.913,2.913,0,0,1,1.321.294,2.556,2.556,0,0,1,.954.807,2.464,2.464,0,0,1,.447,1.089,9.418,9.418,0,0,1,.092,1.407Zm.7-2.275a.716.716,0,0,0-.489.214,1.232,1.232,0,0,0-.306.752h1.6a1.162,1.162,0,0,0-.287-.728A.725.725,0,0,0-294.019-63.121Zm5.468-1.187.086.93a2.2,2.2,0,0,1,.355-.428,2.76,2.76,0,0,1,.434-.336,2.308,2.308,0,0,1,.453-.22,1.278,1.278,0,0,1,.422-.08q.024.318.043.728t.018.838q0,.489-.018.966t-.043.881a1.118,1.118,0,0,0-.306-.073,2.737,2.737,0,0,0-.33-.024.91.91,0,0,0-.667.214.722.722,0,0,0-.214.532v3.389h-1.8q.012-1.982.018-3.762t.006-3.554Z" transform="translate(4035.28 -161)" fill="#f1f1f1"/>
  </g>
</svg>
